<svg width="283" height="162" viewBox="0 0 283 162" fill="none" xmlns="http://www.w3.org/2000/svg">
<path d="M282.003 106.993C282.022 99.9269 280.331 92.9597 277.07 86.6791C273.81 80.3985 269.076 74.9887 263.268 70.9061C263.429 69.3796 263.511 67.8461 263.515 66.3114C263.515 42.0429 243.982 22.3692 219.884 22.3692C212.463 22.3613 205.167 24.2622 198.707 27.8868C181.651 16.744 159.384 10 135.025 10C95.3895 10 61.2956 27.8574 46.1702 53.4624C45.3296 53.4134 44.4841 53.3865 43.6312 53.3865C19.538 53.3865 8.74229e-05 73.0602 8.74229e-05 97.3286C-0.0170231 105.903 2.47789 114.296 7.18073 121.487C7.18073 143.322 27.9339 161.02 53.5234 161.02H239.17C259.27 161.02 275.564 147.124 275.564 129.979C279.792 123.048 282.019 115.096 282.003 106.993Z" fill="#D9D9D9"/>
<g clip-path="url(#clip0_0_1)">
<path d="M197.925 161C191.234 159.946 184.801 159.049 178.625 158.31L181.003 153.523C180.178 153.246 176.601 156.015 176.601 156.015L179.627 142.168C175.5 142.722 173.574 156.846 173.574 156.846L168.896 152.138L171.199 157.468C152.301 155.47 135.994 154.846 122.286 154.989L124.321 150.892C123.496 150.615 119.918 153.384 119.918 153.384L122.945 139.537C118.818 140.091 116.892 154.215 116.892 154.215L112.214 149.507L114.653 155.153C105.263 155.427 95.8933 156.187 86.5808 157.428C88.6118 151.059 95.7047 144.937 95.7047 144.937C90.251 146.645 87.4137 149.427 85.9451 152.006C85.6481 138.922 87.6479 125.889 91.8525 113.505C91.8525 113.505 80.8463 138.429 82.4972 155.046L82.7067 157.997C73.1314 159.501 68.3267 161 68.3267 161H197.925Z" fill="#3F3D56"/>
<path d="M223.15 126.697C222.496 126.697 221.858 126.502 221.315 126.137C220.772 125.772 220.349 125.253 220.099 124.645C219.849 124.038 219.784 123.37 219.911 122.725C220.039 122.081 220.353 121.488 220.815 121.024C221.277 120.559 221.865 120.242 222.505 120.114C223.146 119.986 223.81 120.052 224.413 120.303C225.016 120.555 225.532 120.981 225.895 121.527C226.258 122.074 226.451 122.716 226.451 123.374C226.45 124.255 226.102 125.099 225.483 125.722C224.864 126.345 224.025 126.696 223.15 126.697ZM223.15 120.604C222.605 120.604 222.073 120.767 221.621 121.071C221.168 121.375 220.816 121.808 220.607 122.314C220.399 122.82 220.345 123.377 220.451 123.914C220.557 124.451 220.819 124.945 221.204 125.332C221.589 125.719 222.079 125.983 222.613 126.09C223.146 126.197 223.7 126.142 224.203 125.932C224.705 125.723 225.135 125.368 225.437 124.912C225.74 124.457 225.901 123.921 225.901 123.374C225.9 122.639 225.61 121.935 225.094 121.416C224.578 120.897 223.879 120.605 223.15 120.604Z" fill="#3F3D56"/>
<path d="M249.517 160.564H244.085V155.097H249.517V160.564ZM244.503 160.143H249.099V155.517H244.503V160.143Z" fill="#3F3D56"/>
<path d="M65.6152 160.863L61.9102 156.865L65.8824 153.136L69.5874 157.134L65.6152 160.863ZM62.5007 156.886L65.6357 160.269L68.9968 157.113L65.8618 153.73L62.5007 156.886Z" fill="#3F3D56"/>
<path d="M263 160.255H26.9634V160.809H263V160.255Z" fill="#3F3D56"/>
<path d="M173.292 37.0437V55.2332C173.292 55.4012 173.225 55.5623 173.107 55.6811C172.989 55.8 172.829 55.8669 172.662 55.8674H172.214V150.623C172.214 153.245 171.179 155.76 169.336 157.614C167.494 159.468 164.996 160.51 162.391 160.51H103.565C102.275 160.51 100.998 160.254 99.8064 159.757C98.6148 159.26 97.5321 158.532 96.6202 157.613C95.7083 156.695 94.985 155.605 94.4916 154.406C93.9982 153.207 93.7444 151.921 93.7446 150.623V59.1907H93.4199C93.3021 59.1908 93.189 59.144 93.1055 59.0604C93.0219 58.9769 92.9747 58.8634 92.9742 58.7448V48.3927C92.9741 48.3338 92.9857 48.2755 93.0081 48.221C93.0305 48.1666 93.0633 48.1171 93.1047 48.0755C93.1461 48.0338 93.1952 48.0008 93.2493 47.9782C93.3034 47.9557 93.3614 47.9441 93.4199 47.9441H93.7446V44.0447H93.4171C93.2935 44.0443 93.1751 43.9944 93.0879 43.9062C93.0007 43.8179 92.9519 43.6984 92.9521 43.5739V33.3631C92.9525 33.2391 93.0016 33.1202 93.0887 33.0325C93.1758 32.9448 93.2939 32.8954 93.4171 32.8951H93.7446V27.5723H93.4116C93.3574 27.5724 93.3037 27.5617 93.2536 27.5408C93.2035 27.52 93.158 27.4894 93.1196 27.4508C93.0813 27.4122 93.0509 27.3664 93.0302 27.3159C93.0095 27.2655 92.9988 27.2114 92.9989 27.1569V21.5848C92.9987 21.4743 93.042 21.3682 93.1194 21.2898C93.1967 21.2114 93.3019 21.1671 93.4116 21.1666H93.7446V9.88403C93.7447 7.26265 94.7794 4.74867 96.621 2.89507C98.4627 1.04148 100.96 9.54778e-05 103.565 1.0116e-10H162.391C164.995 -1.18507e-05 167.493 1.04125 169.336 2.89478C171.178 4.74832 172.213 7.26236 172.214 9.88403V36.4095H172.662C172.829 36.4099 172.989 36.4769 173.107 36.5957C173.225 36.7146 173.292 36.8756 173.292 37.0437Z" fill="#3F3D56"/>
<path d="M135.812 5.06995H126.253C125.867 5.06995 125.554 5.38512 125.554 5.7739V6.60545C125.554 6.99424 125.867 7.30941 126.253 7.30941H135.812C136.198 7.30941 136.511 6.99424 136.511 6.60545V5.7739C136.511 5.38512 136.198 5.06995 135.812 5.06995Z" fill="#E6E8EC"/>
<path d="M139.43 7.4599C140.127 7.4599 140.692 6.8912 140.692 6.18967C140.692 5.48814 140.127 4.91943 139.43 4.91943C138.733 4.91943 138.168 5.48814 138.168 6.18967C138.168 6.8912 138.733 7.4599 139.43 7.4599Z" fill="#E6E8EC"/>
<path d="M167.51 11.8394V151.443C167.511 152.35 167.315 153.247 166.937 154.071C166.559 154.895 166.007 155.627 165.319 156.214C164.192 157.182 162.759 157.713 161.277 157.713H104.967C103.965 157.714 102.977 157.472 102.089 157.006C101.88 156.899 101.678 156.779 101.483 156.646C100.637 156.072 99.9436 155.297 99.4644 154.389C98.9851 153.482 98.7344 152.47 98.7344 151.443V11.8394C98.7343 11.0156 98.8955 10.1999 99.2087 9.43886C99.5219 8.6778 99.981 7.98629 100.56 7.4038C101.138 6.82132 101.825 6.35928 102.582 6.04405C103.338 5.72883 104.148 5.56661 104.967 5.56665H113.395V6.65503C113.395 8.02486 113.935 9.33858 114.898 10.3072C115.86 11.2758 117.165 11.82 118.526 11.82H147.165C148.526 11.82 149.831 11.2758 150.793 10.3072C151.756 9.33858 152.296 8.02486 152.296 6.65503V5.56665H161.277C162.096 5.56638 162.906 5.72845 163.663 6.04359C164.419 6.35872 165.106 6.82076 165.685 7.40329C166.264 7.98582 166.723 8.67742 167.036 9.43858C167.349 10.1997 167.51 11.0155 167.51 11.8394Z" fill="#FEA051"/>
<path opacity="0.3" d="M167.51 131.459V151.443C167.511 152.35 167.315 153.247 166.937 154.071C166.559 154.895 166.007 155.627 165.319 156.214C164.192 157.182 162.759 157.713 161.277 157.713H104.967C103.965 157.714 102.977 157.472 102.089 157.006C101.88 156.899 101.678 156.779 101.483 156.646C100.637 156.072 99.9436 155.297 99.4644 154.389C98.9851 153.482 98.7344 152.47 98.7344 151.443V131.467C108.177 122.924 120.424 118.197 133.12 118.196C145.817 118.194 158.065 122.918 167.51 131.459Z" fill="white"/>
<path opacity="0.3" d="M164.161 157.001C163.272 157.471 162.282 157.715 161.277 157.713H104.967C103.965 157.714 102.977 157.472 102.088 157.007C104.638 150.836 108.946 145.563 114.469 141.854C119.992 138.144 126.483 136.164 133.123 136.164C139.763 136.163 146.254 138.142 151.778 141.85C157.302 145.559 161.611 150.831 164.161 157.001Z" fill="white"/>
<path opacity="0.3" d="M151.905 157.336C151.367 157.62 150.768 157.768 150.16 157.767H116.085C115.479 157.768 114.882 157.621 114.344 157.339C115.886 153.605 118.493 150.415 121.835 148.17C125.178 145.925 129.105 144.727 133.123 144.727C137.141 144.727 141.069 145.924 144.412 148.168C147.755 150.412 150.362 153.602 151.905 157.336Z" fill="white"/>
<path d="M147.447 59.6118C141.798 59.6118 135.599 58.5291 130.76 54.876C124.022 49.7899 115.721 50.0613 109.943 51.1849C106.106 51.9375 102.381 53.1862 98.8614 54.9001L98.6069 54.409C102.169 52.6728 105.94 51.4073 109.824 50.6439C115.715 49.4964 124.187 49.2221 131.09 54.433C144.022 64.1951 167.179 55.4273 167.411 55.338L167.608 55.8551C163.266 57.4129 158.774 58.5134 154.206 59.1387C151.966 59.4464 149.708 59.6044 147.447 59.6118Z" fill="white"/>
<path opacity="0.3" d="M98.7314 54.6545C98.7314 54.6545 117.717 50.0262 130.925 56.3632C144.132 62.7002 167.521 56.3161 167.521 56.3161" fill="white"/>
<path opacity="0.3" d="M116.655 61.8441C114.362 61.8338 112.075 61.6039 109.824 61.1576C105.94 60.3942 102.169 59.1287 98.6069 57.3925L98.8614 56.9014C102.381 58.6152 106.106 59.864 109.943 60.6165C115.72 61.74 124.022 62.0115 130.76 56.9254C137.657 51.719 147.318 51.7336 154.206 52.6627C158.774 53.2881 163.266 54.3885 167.608 55.9464L167.411 56.4635C167.179 56.3739 144.022 47.606 131.09 57.3684C126.563 60.7857 121.361 61.8441 116.655 61.8441Z" fill="white"/>
<path opacity="0.3" d="M116.749 59.6141C107.219 59.6141 98.7563 56.173 98.6294 56.1204L98.839 55.6082C99.0274 55.6864 117.849 63.3347 130.785 55.626C143.944 47.7831 167.355 54.7839 167.589 54.8555L167.43 55.3856C167.197 55.3148 144.016 48.3842 131.065 56.1026C126.645 58.7366 121.561 59.6141 116.749 59.6141Z" fill="white"/>
<path opacity="0.3" d="M98.7344 55.4383C98.7344 55.4383 117.717 61.7753 130.925 55.4383C144.132 49.1013 167.51 54.8395 167.51 54.8395" fill="white"/>
<path d="M172.41 72.3925V80.4661C172.41 80.4661 173.052 89.5085 176.581 94.0297C176.581 94.0297 182.357 102.265 183.159 100.489L182.171 94.641L178.827 91.4462L177.063 81.4349L176.581 72.3925H172.41Z" fill="#FFB8B8"/>
<path d="M207.865 145.378V151.352L203.053 153.129V146.185L207.865 145.378Z" fill="#FFB8B8"/>
<path d="M198.079 144.732L201.288 151.998L196.796 153.936L195.833 146.831L198.079 144.732Z" fill="#FFB8B8"/>
<path d="M206.101 89.0241C206.101 89.0241 212.518 147.316 210.111 147.477C207.705 147.639 203.053 150.707 203.053 148.607C203.053 146.508 199.363 119.219 199.363 119.219L195.833 105.171V124.548L199.523 146.508C199.523 146.508 195.994 151.191 193.427 148.446L187.972 126.97C187.972 126.97 180.753 94.3527 181.073 91.7692C181.073 91.7692 197.598 77.5596 206.101 89.0241Z" fill="#2F2E41"/>
<path d="M204.817 151.675C204.817 151.675 206.101 148.93 208.988 150.706L211.395 153.613C211.395 153.613 217.599 158.784 213.197 159.892C208.659 161.034 205.94 159.819 205.94 159.819C205.94 159.819 205.138 159.335 204.496 159.335C203.855 159.335 202.411 158.205 202.411 157.882C202.411 157.559 202.892 151.837 202.892 151.837C203.074 151.748 203.278 151.715 203.478 151.744C203.678 151.773 203.865 151.861 204.015 151.998C204.496 152.483 204.817 151.675 204.817 151.675Z" fill="#2F2E41"/>
<path d="M195.352 150.706C195.352 150.706 198.4 148.284 199.844 151.029C199.844 151.029 200.753 151.352 200.86 151.029C200.967 150.706 201.769 150.545 201.769 152.321C201.769 154.097 202.64 158.528 201.838 158.689C201.036 158.85 200.234 159.335 200.394 159.981C200.555 160.627 199.523 160.718 195.833 160.556C192.143 160.395 191.983 158.942 191.983 158.942C191.983 158.942 191.983 156.842 192.945 155.712C193.908 154.582 195.352 150.706 195.352 150.706Z" fill="#2F2E41"/>
<path d="M189.415 44.9421C189.415 44.9421 188.613 50.9166 193.747 53.0158C198.881 55.1149 182.356 62.0582 180.752 58.0214C179.148 53.9846 181.073 52.6928 181.073 52.6928C181.073 52.6928 182.677 51.0781 181.233 46.7183L189.415 44.9421Z" fill="#FFB8B8"/>
<path d="M184.282 49.1405C188.181 49.1405 191.341 45.9595 191.341 42.0357C191.341 38.1118 188.181 34.9309 184.282 34.9309C180.384 34.9309 177.223 38.1118 177.223 42.0357C177.223 45.9595 180.384 49.1405 184.282 49.1405Z" fill="#FFB8B8"/>
<path d="M192.464 54.9535C192.464 54.9535 187.651 57.537 182.999 55.5994C178.346 53.6617 178.507 62.0583 178.507 62.0583L180.913 68.3557L197.598 66.741L196.475 57.0526L192.464 54.9535Z" fill="#F2F2F2"/>
<path d="M190.073 49.4283C190.928 49.6108 191.73 49.9845 192.422 50.5216C193.114 51.0588 193.676 51.7456 194.069 52.5313L201.769 54.9534L203.694 57.6984L201.448 77.5595C201.448 77.5595 205.62 81.5963 205.62 83.8569C205.62 86.1176 210.753 93.8682 208.186 92.8994C205.62 91.9306 200.967 88.5396 200.967 88.5396C200.967 88.5396 189.256 89.0241 185.566 92.2535C181.876 95.483 180.432 94.5141 180.432 94.5141C180.432 94.5141 176.581 77.721 176.421 75.1374C176.261 72.5539 171.769 57.0526 171.769 57.0526L179.79 52.5313L181.833 50.1981L187.491 59.3132L192.625 53.0158C192.625 53.0158 190.088 51.008 190.073 49.4283Z" fill="#3F3D56"/>
<path d="M206.101 70.1318L207.063 75.299C207.063 75.299 211.395 91.4462 210.753 96.9362C210.753 96.9362 211.234 109.208 208.507 107.755C205.78 106.302 207.224 97.4206 207.224 97.4206L203.373 81.4349L201.288 72.0695L206.101 70.1318Z" fill="#FFB8B8"/>
<path d="M202.09 56.7296L203.694 57.6984C203.694 57.6984 209.791 70.4548 208.347 71.4236C206.903 72.3924 200.646 74.4916 200.646 74.4916L202.09 56.7296Z" fill="#3F3D56"/>
<path d="M175.619 57.0527L171.848 56.9718L170.966 58.5058L172.089 74.1688L177.865 75.4604L175.619 57.0527Z" fill="#3F3D56"/>
<path d="M190.03 36.0269L191.303 35.5612C191.303 35.5612 188.642 32.8836 184.941 33.1165L185.982 32.0687C185.982 32.0687 183.437 31.1374 181.124 33.5821C179.908 34.8673 178.501 36.3779 177.624 38.0796H176.261L176.83 39.2244L174.839 40.3692L176.882 40.1635C176.689 41.1519 176.755 42.174 177.076 43.1284L177.538 44.4089C177.538 44.4089 179.389 40.6836 179.389 40.2179V41.3821C179.389 41.3821 180.661 40.3343 180.661 39.6358L181.355 40.4508L181.702 39.1702L185.982 40.4508L185.288 39.403L187.948 39.7522L186.907 38.4716C186.907 38.4716 189.915 39.9851 190.03 41.2657C190.146 42.5463 190.94 44.2156 190.94 44.2156L191.903 43.0853C191.903 43.0853 193.385 37.7732 190.03 36.0269Z" fill="#2F2E41"/>
<path d="M190.218 43.5697C190.528 43.5697 190.779 42.9191 190.779 42.1165C190.779 41.3138 190.528 40.6632 190.218 40.6632C189.908 40.6632 189.656 41.3138 189.656 42.1165C189.656 42.9191 189.908 43.5697 190.218 43.5697Z" fill="#FFB8B8"/>
<path d="M32.4559 151.491C35.8756 157.875 43.1336 160.615 43.1336 160.615C43.1336 160.615 44.847 153.006 41.4273 146.623C38.0075 140.239 30.7496 137.499 30.7496 137.499C30.7496 137.499 29.0361 145.108 32.4559 151.491Z" fill="#3F3D56"/>
<path d="M34.8064 149.391C40.9805 153.13 43.3583 160.556 43.3583 160.556C43.3583 160.556 35.726 161.92 29.5519 158.182C23.3778 154.443 21 147.017 21 147.017C21 147.017 28.6323 145.653 34.8064 149.391Z" fill="#FEA051"/>
<path opacity="0.3" d="M98.7344 54.6546C98.7344 54.6546 117.717 44.6847 130.925 54.6546C144.132 64.6245 167.51 55.5966 167.51 55.5966" fill="white"/>
<path d="M133.195 156.105C134.867 156.105 136.222 154.741 136.222 153.059C136.222 151.376 134.867 150.012 133.195 150.012C131.524 150.012 130.168 151.376 130.168 153.059C130.168 154.741 131.524 156.105 133.195 156.105Z" fill="white"/>
</g>
<defs>
<clipPath id="clip0_0_1">
<rect width="242" height="161" fill="white" transform="translate(21)"/>
</clipPath>
</defs>
</svg>
