<svg width="284" height="174" viewBox="0 0 284 174" fill="none" xmlns="http://www.w3.org/2000/svg">
<path d="M282.003 118.993C282.022 111.927 280.331 104.96 277.07 98.6791C273.81 92.3985 269.076 86.9887 263.268 82.9061C263.429 81.3796 263.511 79.8461 263.515 78.3114C263.515 54.0429 243.982 34.3692 219.884 34.3692C212.463 34.3613 205.167 36.2622 198.707 39.8868C181.651 28.744 159.384 22 135.025 22C95.3895 22 61.2956 39.8574 46.1702 65.4624C45.3296 65.4134 44.4841 65.3865 43.6312 65.3865C19.538 65.3865 8.74229e-05 85.0602 8.74229e-05 109.329C-0.0170231 117.903 2.47789 126.296 7.18073 133.487C7.18073 155.322 27.9339 173.02 53.5234 173.02H239.17C259.27 173.02 275.564 159.124 275.564 141.979C279.792 135.048 282.019 127.096 282.003 118.993Z" fill="#D9D9D9"/>
<g clip-path="url(#clip0_0_1)">
<path d="M107.394 108.709C107.277 108.592 104.482 105.769 102.113 99.0705C99.9398 92.925 97.7468 82.2083 99.6418 66.0528C103.232 35.4473 84.8219 15.9423 84.6353 15.7488L85.1802 15.2268C85.2275 15.2759 89.961 20.2392 94.1724 28.9526C99.747 40.5069 101.905 53.4068 100.392 66.1405C96.8082 96.6937 107.816 108.063 107.927 108.175L107.394 108.709Z" fill="#F2F2F2"/>
<path d="M78.9823 15.2361C81.6938 15.2361 83.8919 13.0435 83.8919 10.3389C83.8919 7.63421 81.6938 5.44165 78.9823 5.44165C76.2708 5.44165 74.0728 7.63421 74.0728 10.3389C74.0728 13.0435 76.2708 15.2361 78.9823 15.2361Z" fill="#F2F2F2"/>
<path d="M98.3246 29.1386C101.036 29.1386 103.234 26.946 103.234 24.2413C103.234 21.5367 101.036 19.3441 98.3246 19.3441C95.6131 19.3441 93.415 21.5367 93.415 24.2413C93.415 26.946 95.6131 29.1386 98.3246 29.1386Z" fill="#F2F2F2"/>
<path d="M90.9184 43.3511C93.6298 43.3511 95.8279 41.1585 95.8279 38.4539C95.8279 35.7492 93.6298 33.5566 90.9184 33.5566C88.2069 33.5566 86.0088 35.7492 86.0088 38.4539C86.0088 41.1585 88.2069 43.3511 90.9184 43.3511Z" fill="#F2F2F2"/>
<path d="M105.811 50.194C108.522 50.194 110.721 48.0014 110.721 45.2968C110.721 42.5921 108.522 40.3995 105.811 40.3995C103.099 40.3995 100.901 42.5921 100.901 45.2968C100.901 48.0014 103.099 50.194 105.811 50.194Z" fill="#F2F2F2"/>
<path d="M93.4306 69.4959C96.142 69.4959 98.3401 67.3033 98.3401 64.5986C98.3401 61.894 96.142 59.7014 93.4306 59.7014C90.7191 59.7014 88.521 61.894 88.521 64.5986C88.521 67.3033 90.7191 69.4959 93.4306 69.4959Z" fill="#F2F2F2"/>
<path d="M110.319 108.182C110.319 108.182 102.683 97.6329 114.841 85.3651L110.319 108.182Z" fill="#F2F2F2"/>
<path d="M104.401 109.398C104.401 109.398 99.1819 97.4735 82.4077 101.672L104.401 109.398Z" fill="#F2F2F2"/>
<path d="M199.918 146.904C199.898 146.657 199.459 140.736 203.275 130.812C206.777 121.707 214.702 107.374 232.574 90.8014C266.433 59.4054 264.429 19.3658 264.404 18.9647L265.533 18.8973C265.539 18.999 266.105 29.2349 262.428 43.2382C257.541 61.7975 247.452 78.583 233.344 91.6274C199.543 122.97 201.026 146.577 201.045 146.812L199.918 146.904Z" fill="#F2F2F2"/>
<path d="M263.226 14.6587C267.284 14.6587 270.573 11.3776 270.573 7.33012C270.573 3.28268 267.284 0.00158691 263.226 0.00158691C259.168 0.00158691 255.879 3.28268 255.879 7.33012C255.879 11.3776 259.168 14.6587 263.226 14.6587Z" fill="#F2F2F2"/>
<path d="M271.741 49.2169C275.798 49.2169 279.088 45.9358 279.088 41.8883C279.088 37.8409 275.798 34.5598 271.741 34.5598C267.683 34.5598 264.394 37.8409 264.394 41.8883C264.394 45.9358 267.683 49.2169 271.741 49.2169Z" fill="#F2F2F2"/>
<path d="M249.479 58.2428C253.536 58.2428 256.826 54.9617 256.826 50.9142C256.826 46.8668 253.536 43.5857 249.479 43.5857C245.421 43.5857 242.132 46.8668 242.132 50.9142C242.132 54.9617 245.421 58.2428 249.479 58.2428Z" fill="#F2F2F2"/>
<path d="M259.791 80.4516C263.849 80.4516 267.138 77.1705 267.138 73.1231C267.138 69.0757 263.849 65.7946 259.791 65.7946C255.734 65.7946 252.444 69.0757 252.444 73.1231C252.444 77.1705 255.734 80.4516 259.791 80.4516Z" fill="#F2F2F2"/>
<path d="M226.911 90.4619C230.969 90.4619 234.258 87.1809 234.258 83.1334C234.258 79.086 230.969 75.8049 226.911 75.8049C222.854 75.8049 219.564 79.086 219.564 83.1334C219.564 87.1809 222.854 90.4619 226.911 90.4619Z" fill="#F2F2F2"/>
<path d="M203.762 149.134C203.762 149.134 205.323 129.725 231.108 127.514L203.762 149.134Z" fill="#F2F2F2"/>
<path d="M195.837 144.793C195.837 144.793 201.489 126.156 178.294 114.706L195.837 144.793Z" fill="#F2F2F2"/>
<path d="M35.4764 128.345C33.0273 137.376 24.6386 142.969 24.6386 142.969C24.6386 142.969 20.2207 133.92 22.6698 124.89C25.1189 115.859 33.5076 110.266 33.5076 110.266C33.5076 110.266 37.9255 119.315 35.4764 128.345Z" fill="#FEA051"/>
<path d="M13.1966 128.345C15.6457 137.376 24.0344 142.969 24.0344 142.969C24.0344 142.969 28.4524 133.92 26.0033 124.89C23.5542 115.859 15.1655 110.266 15.1655 110.266C15.1655 110.266 10.7475 119.315 13.1966 128.345Z" fill="#FEA051"/>
<path d="M16.7954 126.404C23.5158 132.93 24.3366 142.961 24.3366 142.961C24.3366 142.961 14.2616 142.413 7.54121 135.887C0.820844 129.362 0 119.33 0 119.33C0 119.33 10.075 119.879 16.7954 126.404Z" fill="#3F3D56"/>
<path d="M31.8776 126.404C25.1573 132.93 24.3364 142.961 24.3364 142.961C24.3364 142.961 34.4114 142.413 41.1318 135.887C47.8522 129.362 48.673 119.33 48.673 119.33C48.673 119.33 38.598 119.879 31.8776 126.404Z" fill="#3F3D56"/>
<path d="M284 162.373H2.48242V163.026H284V162.373Z" fill="#2F2E41"/>
<path d="M151.071 62.0778C151.071 62.0778 148.15 59.1634 141.43 59.7463C141.43 59.7463 76.5657 53.043 75.1048 64.9923C73.6439 76.9415 73.3517 83.9362 77.1501 86.5592C77.1501 86.5592 89.5677 97.7799 83.1398 107.689L79.6336 113.518L217.25 112.352C217.25 112.352 218.711 91.0766 223.094 86.9964C227.476 82.9162 228.937 61.3492 223.094 60.7663C217.25 60.1834 149.465 56.9776 151.071 62.0778Z" fill="#3F3D56"/>
<path d="M78.4651 85.8306C78.4651 85.8306 37.2678 95.4483 53.6298 113.518L56.2594 116.141L55.0907 156.36H245.007L247.053 117.015L249.39 112.352C249.39 112.352 263.946 94.9382 221.899 88.6357L214.329 107.689L86.3539 106.815C86.3539 106.815 85.4774 85.2477 78.4651 85.8306Z" fill="#3F3D56"/>
<path d="M70.576 153.737H58.5967V162.772H70.576V153.737Z" fill="#3F3D56"/>
<path d="M242.962 153.737H230.982V162.772H242.962V153.737Z" fill="#3F3D56"/>
<path d="M148.849 107.835C148.849 107.835 120.246 87.5792 84.6005 107.98L74.082 123.135L76.1273 135.668C76.1273 135.668 150.049 136.833 150.925 128.964C151.802 121.095 148.849 107.835 148.849 107.835Z" fill="#3F3D56"/>
<path d="M215.789 107.98C215.789 107.98 165.607 91.9509 150.523 107.98L152.386 131.005C152.386 131.005 225.723 136.542 226.892 132.753C228.061 128.964 228.645 122.261 228.645 122.261L215.789 107.98Z" fill="#3F3D56"/>
<path opacity="0.1" d="M215.789 107.98C215.789 107.98 165.607 91.9509 150.523 107.98L150.565 108.494C150.515 108.256 150.487 108.126 150.487 108.126C150.487 108.126 120.246 87.5792 84.6005 107.98L74.082 123.135L76.1273 135.668C76.1273 135.668 147.707 137.186 152.305 130.006L152.386 131.005C152.386 131.005 225.723 136.542 226.892 132.753C228.061 128.964 228.645 122.261 228.645 122.261L215.789 107.98Z" fill="black"/>
<path d="M79.6338 67.761C93.8346 67.4597 107.297 65.662 119.662 61.6406C119.963 75.8284 122.008 89.0974 126.675 100.986C112.85 98.4799 98.8196 100.96 84.6008 107.98C87.1546 95.155 84.9467 81.6723 79.6338 67.761Z" fill="#FEA051"/>
<path d="M224.847 70.0925C210.646 69.7912 197.183 67.9935 184.818 63.9722C184.517 78.1599 182.472 91.429 177.806 103.317C191.63 100.811 205.661 103.291 219.88 110.312C217.326 97.4866 219.534 84.0039 224.847 70.0925Z" fill="#FEA051"/>
<path d="M133.65 66.3692C134.477 65.7819 135.39 65.3253 136.356 65.0153C142.484 62.7409 148.905 61.3467 155.426 60.8744C161.097 60.4733 167.242 60.9497 171.671 64.5045C172.36 65.0087 172.924 65.6639 173.319 66.4195C173.876 67.6189 173.707 69.013 173.527 70.3226C173.487 70.8306 173.358 71.3277 173.148 71.7919C172.552 72.9238 171.084 73.3204 169.81 73.1846C168.535 73.0489 167.339 72.511 166.082 72.2616C165.304 72.1263 164.517 72.0464 163.728 72.0225L155.844 71.5967C150.941 71.3319 145.974 71.0716 141.164 72.0586C139.684 72.324 138.253 72.8157 136.923 73.5164C135.825 74.1315 135.085 75.0143 134.066 73.878C132.275 71.8818 131.284 68.213 133.65 66.3692Z" fill="#2F2E41"/>
<path d="M145.867 69.847C145.867 69.847 156.472 65.1051 160.494 70.5765C164.517 76.0479 158.3 73.8594 158.3 73.8594L151.352 76.0479L143.673 74.5889L145.867 69.847Z" fill="#F2F2F2"/>
<path d="M146.416 66.3817C146.416 66.3817 147.878 73.3122 146.781 75.136C145.684 76.9598 152.998 79.5132 152.998 79.5132L159.946 76.5951C159.946 76.5951 158.117 65.2874 159.946 63.0989L146.416 66.3817Z" fill="#FFB9B9"/>
<path opacity="0.1" d="M146.416 66.3817C146.416 66.3817 147.878 73.3122 146.781 75.136C145.684 76.9598 152.998 79.5132 152.998 79.5132L159.946 76.5951C159.946 76.5951 158.117 65.2874 159.946 63.0989L146.416 66.3817Z" fill="black"/>
<path d="M139.563 149.716C140.609 151.717 141.288 153.885 141.98 156.033C141.99 156.105 142.015 156.173 142.054 156.235C142.093 156.296 142.144 156.348 142.204 156.388C142.265 156.428 142.333 156.455 142.405 156.467C142.476 156.479 142.55 156.476 142.62 156.458L149.124 156.45C149.927 156.449 151.004 156.192 150.996 155.392C150.99 154.829 150.413 154.478 149.984 154.113C148.794 153.1 148.484 151.429 147.99 149.947C147.032 147.092 145.185 144.618 142.718 142.883C142.384 142.623 142.001 142.434 141.591 142.328C141.179 142.268 140.758 142.291 140.355 142.394C139.213 142.624 134.949 143.41 135.755 145.067C136.102 145.78 137.387 146.523 137.926 147.189C138.554 147.976 139.102 148.822 139.563 149.716Z" fill="#575A89"/>
<path d="M162.182 142.191C161.952 142.672 161.697 143.14 161.417 143.593C160.475 145.144 159.363 146.59 158.485 148.177C157.938 149.168 157.477 150.238 157.417 151.367C157.356 152.496 157.755 153.698 158.658 154.382C159.602 155.097 160.897 155.13 162.07 154.963C163.244 154.797 164.41 154.461 165.592 154.55C165.194 152.3 167.096 150.32 167.571 148.086C167.705 147.458 167.725 146.808 167.904 146.191C168.097 145.628 168.343 145.084 168.64 144.568C169.587 142.728 170.257 140.759 170.627 138.724C170.671 138.477 164.845 138.436 164.298 138.554C162.592 138.922 162.842 140.78 162.182 142.191Z" fill="#575A89"/>
<path d="M117.272 106.852C115.609 109.448 115.992 112.889 117.16 115.741C118.328 118.594 120.188 121.116 121.46 123.923C122.272 125.713 122.841 127.611 123.754 129.351C124.886 131.506 126.537 133.406 127.297 135.717C127.78 137.191 127.891 138.806 128.675 140.145C129.149 140.861 129.69 141.53 130.29 142.144C131.979 144.073 133.247 146.332 134.013 148.776C134.729 146.647 136.875 145.252 139.078 144.791C141.282 144.331 143.565 144.643 145.794 144.958C144.551 143.036 143.295 141.09 142.554 138.926C141.837 136.833 141.625 134.606 141.143 132.447C140.152 128.02 138.037 123.936 135.943 119.91L146.707 119.058C148.464 118.882 150.23 118.817 151.996 118.862C154.774 118.993 157.496 119.672 160.26 119.986C163.023 120.3 165.947 120.218 168.41 118.929C163.7 125.669 161.248 133.722 161.402 141.936C162.455 141.123 163.677 140.554 164.978 140.273C166.279 139.991 167.627 140.003 168.923 140.308C170.219 140.613 171.43 141.203 172.468 142.036C173.506 142.868 174.344 143.921 174.921 145.119C179.139 139.368 178.638 131.363 181.98 125.066C182.668 123.771 183.51 122.565 184.252 121.3C185.719 118.799 186.783 116.088 187.841 113.389C188.776 111.003 189.718 108.349 188.821 105.949C188.449 105.038 187.907 104.206 187.223 103.497C185.295 101.376 182.61 99.8073 179.74 99.7419C175.334 99.6416 171.695 102.899 167.83 105.012C163.278 107.5 157.967 108.489 152.789 108.123C147.481 107.748 142.411 106.015 137.353 104.488C134.823 103.689 132.251 103.027 129.649 102.506C127.48 102.1 125.415 102.549 123.277 103.103C120.95 103.705 118.611 104.761 117.272 106.852Z" fill="#2F2E41"/>
<path d="M163.237 59.4513C163.234 62.3528 162.078 65.1348 160.021 67.1864C157.964 69.2381 155.175 70.3918 152.266 70.3942C151.613 70.3953 150.96 70.3367 150.317 70.2191C148.264 69.8492 146.359 68.9031 144.826 67.4916C143.293 66.0801 142.196 64.2619 141.662 62.2501C141.128 60.2383 141.181 58.1164 141.813 56.1333C142.446 54.1502 143.632 52.3882 145.233 51.0538C146.834 49.7195 148.783 48.8682 150.852 48.5998C152.921 48.3314 155.024 48.6571 156.914 49.5386C158.803 50.4201 160.402 51.8208 161.522 53.5766C162.642 55.3323 163.237 57.3703 163.237 59.4513Z" fill="#FFB9B9"/>
<path d="M145.867 69.8471C145.867 69.8471 147.878 70.759 148.61 71.4885C149.341 72.218 151.535 76.2304 155.192 73.6771C158.849 71.1237 159.214 69.6647 160.311 69.6647C161.409 69.6647 162.871 71.8532 162.871 71.8532L172.927 101.946C170.217 104.998 167.076 107.64 163.603 109.788C157.752 113.436 150.804 115.26 147.513 113.801C144.221 112.342 138.005 111.248 136.908 108.329C135.811 105.411 133.982 96.6571 133.982 96.6571L139.102 74.4066L145.867 69.8471Z" fill="#F2F2F2"/>
<path d="M144.455 100.282C145.252 98.5644 145.368 96.6201 145.436 94.7284C145.543 92.8548 145.493 90.9755 145.287 89.1102C144.963 86.6703 144.166 84.3196 143.663 81.91C143.222 79.7967 143.008 77.6425 143.024 75.4839C143.031 74.499 143.103 73.4621 143.641 72.6361C144.016 72.06 144.603 71.6137 144.838 70.9676C145.298 69.7007 144.161 68.3742 142.916 67.8525C141.434 67.2319 139.741 67.2736 138.182 67.663C136.623 68.0524 135.169 68.7688 133.729 69.48C132.689 69.9937 131.627 70.5233 130.82 71.356C129.685 72.5276 129.186 74.1595 128.783 75.7385C128.46 77.0023 128.173 78.3201 128.419 79.6011C128.817 81.6811 130.517 83.2456 131.424 85.1607C132.476 87.3845 132.405 89.9761 131.987 92.3995C131.568 94.823 130.825 97.1925 130.596 99.641C130.367 102.09 130.718 104.722 132.256 106.644C132.883 107.427 134.583 109.283 135.73 109.073C136.632 108.908 137.938 106.929 138.664 106.302C140.762 104.489 143.251 102.877 144.455 100.282Z" fill="#2F2E41"/>
<path d="M163.614 68.6574C163.646 70.6918 162.747 72.6255 161.69 74.3655C160.633 76.1055 159.391 77.7511 158.612 79.6315C157.643 81.9853 157.446 84.5842 158.047 87.0568C158.27 87.899 158.54 88.7284 158.854 89.5414L160.857 95.0233C161.127 95.8852 161.518 96.7045 162.019 97.4565C162.472 98.0324 163.003 98.5424 163.598 98.9716C165.12 100.197 166.871 101.109 168.75 101.653C170.635 102.149 172.698 102.118 174.479 101.327C174.672 93.895 175.869 86.5234 178.037 79.4111C178.438 78.0981 178.875 76.7158 178.566 75.3784C178.22 73.8804 177.014 72.7557 175.867 71.7286C172.361 68.5875 168.504 65.288 163.81 64.8645C161.094 64.6194 163.591 67.1866 163.614 68.6574Z" fill="#2F2E41"/>
<path d="M139.617 111.066C139.895 111.609 140.068 112.201 140.343 112.745C140.749 113.476 141.251 114.149 141.835 114.747C144.28 117.451 147.269 120.145 150.916 120.308C151.278 120.342 151.644 120.296 151.986 120.174C152.624 119.909 153.001 119.227 153.125 118.549C153.384 117.137 152.759 115.727 152.133 114.434C150.776 111.632 149.25 108.758 146.71 106.95C144.206 105.168 140.852 104.736 137.932 105.633C136.609 106.039 134.415 106.749 136.167 107.953C137.495 108.867 138.846 109.562 139.617 111.066Z" fill="#FFB9B9"/>
<path d="M141.81 155.207C140.72 156.685 140.939 158.797 139.973 160.359C139.136 161.712 137.558 162.422 136.511 163.622C136.177 164.02 135.879 164.447 135.621 164.899C134.65 166.522 133.86 168.601 134.817 170.233C135.586 171.545 137.204 172.058 138.687 172.408C140.562 172.85 142.51 173.203 144.407 172.866C146.304 172.528 148.157 171.37 148.833 169.57C148.966 169.118 149.124 168.673 149.307 168.238C150.335 166.219 153.559 166.197 154.611 164.191C155.347 162.787 154.671 161.09 153.994 159.656L151.928 155.278C151.242 153.825 148.462 154.66 147.013 154.312C145.123 153.858 143.17 153.358 141.81 155.207Z" fill="#2F2E41"/>
<path d="M157.792 151.446C156.915 152.059 156.348 153.02 155.923 154C154.9 156.353 154.549 158.933 154.208 161.475C154.071 162.494 153.935 163.536 154.149 164.541C154.589 166.617 156.475 168.146 158.505 168.781C160.535 169.416 162.713 169.318 164.838 169.214C165.52 169.181 166.23 169.14 166.828 168.811C167.896 168.224 168.313 166.843 168.13 165.64C167.947 164.438 167.288 163.368 166.644 162.335C165.999 161.303 165.34 160.233 165.155 159.031C164.844 157.008 165.721 154.039 164.475 152.209C163.227 150.375 159.458 150.281 157.792 151.446Z" fill="#2F2E41"/>
<path d="M162.961 53.7485C162.766 53.0941 162.336 52.5343 161.753 52.1761C161.783 51.4751 161.697 50.7739 161.498 50.1009C160.834 48.1418 159.26 48.254 157.775 47.3879C157.131 47.0121 157.171 46.6799 156.835 46.0627C156.396 45.2535 155.738 44.5836 154.935 44.129C153.983 43.5236 152.977 42.9 151.85 42.8234C149.481 42.6623 147.665 44.8845 145.402 45.5977C144.404 45.912 143.332 45.925 142.329 46.2221C141.326 46.5193 140.325 47.2289 140.175 48.2619C140.106 48.7389 140.228 49.2281 140.158 49.7049C140.019 50.6525 139.185 51.3162 138.627 52.0957C137.394 53.8193 137.535 56.2543 138.521 58.1297C138.729 58.5177 138.967 58.889 139.233 59.2403C139.315 60.1267 139.57 60.9885 139.984 61.7773C140.971 63.6527 142.669 65.0541 144.442 66.2183C144.297 65.5964 144.209 64.9625 144.179 64.3246C144.154 64.112 144.182 63.8965 144.26 63.6971C144.458 63.2852 144.98 63.1757 145.378 62.9501C146.202 62.4829 146.525 61.4489 146.549 60.5036C146.573 59.5582 146.372 58.6113 146.471 57.6708C146.475 57.4545 146.524 57.2415 146.616 57.0454C146.707 56.8493 146.839 56.6744 147.002 56.5322C147.307 56.3591 147.654 56.2765 148.004 56.294C149.693 56.2253 151.457 56.1944 152.947 55.3978C153.455 55.126 153.927 54.7666 154.485 54.6214C155.751 54.2921 157.045 55.1772 157.775 56.2605C158.504 57.3437 158.868 58.6328 159.541 59.7518C160.214 60.8708 161.377 61.8687 162.679 61.7361C162.752 61.7363 162.825 61.721 162.892 61.6913C162.959 61.6616 163.019 61.6181 163.068 61.5637C163.124 61.4631 163.149 61.3482 163.139 61.2334L163.212 56.2708C163.272 55.4219 163.188 54.569 162.961 53.7485Z" fill="#2F2E41"/>
<path d="M128.243 79.7069C127.196 81.2472 125.989 82.7282 125.414 84.4983C125.076 85.5387 124.971 86.6386 124.726 87.7047C123.91 91.2557 121.554 94.4097 121.318 98.0449C121.235 98.8527 121.354 99.6684 121.664 100.419C122.34 101.885 123.957 102.658 125.5 103.144C127.043 103.63 128.699 103.981 129.931 105.027C130.551 105.62 131.113 106.27 131.61 106.969C133.619 109.462 136.322 111.306 139.379 112.271C139.137 110.611 139.024 108.611 140.354 107.585C141.074 107.03 142.036 106.931 142.943 106.853L147.227 106.483C144.37 103.719 141.221 101.272 137.835 99.1849C136.65 98.4548 135.361 97.6847 134.82 96.4047C134.482 95.6045 134.486 94.7082 134.478 93.8398C134.449 90.6613 134.179 87.4895 133.671 84.3514C133.318 82.1725 132.851 80.0131 132.317 77.8712C132.167 77.2699 131.281 74.5728 130.19 75.2039C129.933 75.3525 129.692 77.0635 129.542 77.4185C129.185 78.2219 128.75 78.9884 128.243 79.7069Z" fill="#2F2E41"/>
<path opacity="0.1" d="M134.172 84.3828C134.22 86.9595 133.672 89.5125 132.569 91.8429C132.282 92.358 132.07 92.9114 131.941 93.4863C131.749 94.7127 132.448 95.8999 133.248 96.8508C134.826 98.7209 136.872 100.141 139.178 100.966" fill="black"/>
<path d="M161.471 71.3119L161.729 71.3527C161.503 71.317 161.301 71.1933 161.166 71.0088C161.032 70.8243 160.976 70.5941 161.012 70.3689L163.68 53.5538C163.716 53.3285 163.84 53.1266 164.025 52.9925C164.21 52.8585 164.441 52.8032 164.667 52.8388L164.409 52.7981C164.588 52.8264 164.76 52.8898 164.915 52.9846C165.07 53.0793 165.205 53.2036 165.312 53.3503C165.419 53.497 165.496 53.6633 165.538 53.8397C165.581 54.016 165.588 54.199 165.56 54.3781L163.055 70.1637C163.026 70.3429 162.963 70.5147 162.868 70.6693C162.773 70.824 162.648 70.9584 162.501 71.0651C162.354 71.1717 162.187 71.2484 162.011 71.2907C161.834 71.3331 161.65 71.3403 161.471 71.3119Z" fill="#2F2E41"/>
<path d="M164.318 52.784L164.709 52.8458L161.771 71.3596L161.38 71.2978C161.314 71.2874 161.25 71.264 161.193 71.2292C161.136 71.1943 161.087 71.1486 161.047 71.0946C161.008 71.0406 160.98 70.9794 160.964 70.9145C160.948 70.8496 160.946 70.7823 160.956 70.7164L163.735 53.2065C163.745 53.1406 163.769 53.0774 163.804 53.0205C163.839 52.9636 163.884 52.9141 163.939 52.8749C163.993 52.8356 164.054 52.8074 164.119 52.7918C164.184 52.7763 164.252 52.7736 164.318 52.784Z" fill="#FEA051"/>
<path d="M164.369 55.2366L164.294 55.2247C164.267 55.2205 164.242 55.2386 164.238 55.2653L164.014 56.6787C164.009 56.7054 164.028 56.7304 164.054 56.7346L164.13 56.7465C164.156 56.7507 164.181 56.7325 164.186 56.7059L164.41 55.2925C164.414 55.2658 164.396 55.2408 164.369 55.2366Z" fill="#464353"/>
<path d="M171.004 68.0775C171.408 67.064 171.818 66.0158 171.79 64.9257C171.721 63.9376 171.42 62.9795 170.913 62.1279C170.297 60.9851 169.527 59.9314 168.626 58.9957C167.553 57.882 166.002 56.8875 164.539 57.393C163.377 57.7944 162.714 59.0011 162.285 60.1505C162.029 60.7117 161.927 61.331 161.991 61.9443C162.134 62.7356 162.747 63.343 163.19 64.0141C163.886 65.0662 164.185 66.3233 164.471 67.5511L165.188 70.6308L166.419 75.9205C166.387 75.7811 168.707 73.5893 168.982 73.1227C169.87 71.6196 170.359 69.7001 171.004 68.0775Z" fill="#FFB9B9"/>
<path d="M177.592 73.8861L179.341 77.5159C180.184 79.0084 180.568 80.7155 180.444 82.4242L180.548 93.3124C180.562 94.7675 180.573 96.2444 180.189 97.6482C180.08 98.1167 179.875 98.5576 179.586 98.9428C179.289 99.2748 178.939 99.5558 178.551 99.7743C175.24 101.838 170.945 103.011 167.447 101.282C166.645 100.856 165.884 100.36 165.17 99.7994C163.776 98.7694 162.361 97.7192 161.318 96.3362C160.226 94.8887 165.246 89.3816 164.512 87.725C163.196 84.7572 163.924 77.7189 161.882 75.1929C161.585 74.8253 164.286 75.1563 164.275 74.6843C164.254 73.7299 166.548 72.3501 167.433 71.987C168.946 71.3666 170.686 70.1009 170.94 68.4896C174.155 72.6958 165.126 85.4047 170.2 86.9417C170.28 86.9924 170.372 87.0207 170.466 87.0236C170.56 87.0264 170.654 87.0038 170.736 86.9581C170.819 86.9123 170.887 86.8452 170.935 86.7637C170.982 86.6822 171.007 86.5895 171.005 86.4953C171.293 85.2932 171.395 84.0554 171.606 82.8374C171.992 80.6196 172.737 78.4789 173.81 76.4986C174.41 75.3882 176.356 71.324 177.592 73.8861Z" fill="#2F2E41"/>
<path opacity="0.1" d="M172.167 82.2112C171.909 82.9027 172.143 83.6675 172.342 84.3782C172.918 86.4396 173.187 88.5743 173.14 90.7137C173.148 90.7511 173.147 90.79 173.136 90.8269C173.126 90.8638 173.106 90.8975 173.08 90.9249C173.053 90.9523 173.019 90.9727 172.983 90.9841C172.946 90.9954 172.907 90.9975 172.869 90.9901C172.025 91.0417 171.059 91.0471 170.486 90.4265" fill="black"/>
<path d="M36.537 162.335H12.2861L8.06773 147.99C7.81066 147.116 7.76134 146.194 7.92368 145.298C8.08602 144.401 8.45556 143.555 9.00297 142.825C9.55039 142.096 10.2606 141.504 11.0773 141.096C11.8941 140.689 12.7948 140.477 13.7081 140.477H34.9229C35.8301 140.477 36.7249 140.686 37.5374 141.088C38.3499 141.491 39.058 142.076 39.6062 142.797C40.1544 143.518 40.5279 144.355 40.6974 145.244C40.8669 146.133 40.8278 147.049 40.5832 147.921L36.537 162.335Z" fill="#3F3D56"/>
<path d="M48.8086 54.5588C48.0574 54.5588 47.323 54.3366 46.6983 53.9202C46.0737 53.5039 45.5869 52.9122 45.2994 52.2199C45.0119 51.5276 44.9367 50.7658 45.0832 50.0308C45.2298 49.2959 45.5916 48.6208 46.1228 48.0909C46.654 47.561 47.3308 47.2002 48.0676 47.054C48.8044 46.9078 49.5681 46.9828 50.2621 47.2696C50.9562 47.5564 51.5494 48.042 51.9668 48.6651C52.3841 49.2881 52.6069 50.0206 52.6069 50.77C52.6058 51.7745 52.2053 52.7375 51.4932 53.4478C50.7811 54.1581 49.8156 54.5577 48.8086 54.5588ZM48.8086 47.5641C48.1729 47.5641 47.5515 47.7521 47.023 48.1044C46.4945 48.4567 46.0825 48.9573 45.8393 49.5431C45.596 50.1289 45.5324 50.7735 45.6564 51.3954C45.7804 52.0173 46.0865 52.5885 46.536 53.0369C46.9854 53.4852 47.5581 53.7906 48.1816 53.9143C48.805 54.038 49.4512 53.9745 50.0385 53.7318C50.6258 53.4892 51.1277 53.0783 51.4809 52.5511C51.8341 52.0239 52.0226 51.4041 52.0226 50.77C52.0216 49.92 51.6827 49.1052 51.0801 48.5041C50.4776 47.9031 49.6607 47.5651 48.8086 47.5641Z" fill="#3F3D56"/>
<path d="M187.302 37.3636C186.551 37.3636 185.816 37.1414 185.192 36.7251C184.567 36.3087 184.08 35.717 183.793 35.0247C183.505 34.3324 183.43 33.5706 183.576 32.8356C183.723 32.1007 184.085 31.4256 184.616 30.8957C185.147 30.3658 185.824 30.005 186.561 29.8588C187.298 29.7126 188.061 29.7876 188.755 30.0744C189.449 30.3612 190.043 30.8468 190.46 31.4699C190.877 32.0929 191.1 32.8254 191.1 33.5748C191.099 34.5793 190.698 35.5423 189.986 36.2526C189.274 36.9629 188.309 37.3625 187.302 37.3636ZM187.302 30.3689C186.666 30.3689 186.045 30.5569 185.516 30.9092C184.988 31.2615 184.576 31.7622 184.332 32.348C184.089 32.9338 184.026 33.5783 184.15 34.2002C184.274 34.8221 184.58 35.3933 185.029 35.8417C185.479 36.29 186.051 36.5954 186.675 36.7191C187.298 36.8428 187.944 36.7793 188.532 36.5367C189.119 36.294 189.621 35.8831 189.974 35.3559C190.327 34.8287 190.516 34.2089 190.516 33.5748C190.515 32.7248 190.176 31.91 189.573 31.3089C188.971 30.7079 188.154 30.3699 187.302 30.3689Z" fill="#3F3D56"/>
<path d="M125.067 9.90911H117.471V2.33154H125.067V9.90911ZM118.055 9.32622H124.483V2.91443H118.055V9.32622Z" fill="#3F3D56"/>
</g>
<defs>
<clipPath id="clip0_0_1">
<rect width="284" height="173" fill="white"/>
</clipPath>
</defs>
</svg>
