<svg width="282" height="175" viewBox="0 0 282 175" fill="none" xmlns="http://www.w3.org/2000/svg">
<g clip-path="url(#clip0_196_0)">
<path d="M282 120.975C282.02 113.909 280.328 106.942 277.068 100.661C273.807 94.3805 269.074 88.9707 263.266 84.8881C263.426 83.3617 263.509 81.8282 263.512 80.2934C263.512 56.025 243.979 36.3513 219.881 36.3513C212.461 36.3434 205.165 38.2443 198.704 41.8688C181.649 30.726 159.382 23.9821 135.022 23.9821C95.3871 23.9821 61.2932 41.8394 46.1677 67.4444C45.3272 67.3955 44.4817 67.3685 43.6288 67.3685C19.5355 67.3685 -0.00235398 87.0423 -0.00235398 111.311C-0.0194645 119.885 2.47545 128.278 7.17829 135.469C7.17829 157.304 27.9314 175.002 53.5209 175.002H239.168C259.268 175.002 275.561 161.106 275.561 143.961C279.789 137.03 282.017 129.078 282 120.975Z" fill="#FFF5EE"/>
<path d="M204.247 40.1773C202.389 40.9557 200.525 41.7366 198.795 42.7647C198.008 43.2298 197.254 43.7439 196.445 44.1674C195.575 44.6276 194.651 44.9752 193.734 45.3472C191.203 46.3737 188.746 47.5693 186.378 48.9261C186.583 46.2946 186.196 43.4354 184.611 41.3841C184.378 41.0801 184.119 40.7967 183.837 40.5371C182.715 39.5041 181.125 39.2373 180.023 38.334C180.694 37.1639 182.183 36.1015 183.196 35.2081C184.29 34.2469 185.426 33.3354 186.603 32.4738C188.954 30.7491 191.458 29.2391 194.084 27.9623C195.75 27.152 197.491 26.4275 199.33 26.1802C199.561 26.1284 199.803 26.1498 200.022 26.2414C200.308 26.3981 200.412 26.7506 200.481 27.0664C200.823 28.6453 200.998 30.2658 201.284 31.8569C201.425 32.6746 201.615 33.4831 201.854 34.2779C202.161 35.2178 202.516 36.1418 202.916 37.0464C203.362 38.0892 203.805 39.1329 204.247 40.1773Z" fill="#FBBEBE"/>
<path d="M151.494 84.7976C151.493 88.0471 150.459 91.2133 148.539 93.8445C146.619 96.4757 143.911 98.4373 140.801 99.4494C137.692 100.461 134.34 100.472 131.224 99.4804C128.108 98.4885 125.387 96.5445 123.449 93.9258C121.489 91.2807 120.432 88.0819 120.435 84.7976C120.435 80.7075 122.071 76.7849 124.983 73.8928C127.896 71.0006 131.846 69.3759 135.964 69.3759C140.083 69.3759 144.033 71.0006 146.945 73.8928C149.858 76.7849 151.494 80.7075 151.494 84.7976Z" fill="#BE6F72"/>
<path d="M130.4 98.3882C131.231 99.8104 132.069 101.245 132.601 102.794C133.134 104.344 133.341 106.06 132.902 107.644C138.192 104.878 144.488 105.1 150.31 103.7C150.466 103.682 150.609 103.607 150.712 103.49C150.748 103.409 150.766 103.323 150.766 103.235C150.766 103.147 150.748 103.061 150.712 102.98C149.493 98.5013 149.024 93.8535 149.324 89.2233L146.285 91.0078C144.954 91.8239 143.576 92.5596 142.156 93.2109C140.147 94.0848 138.015 94.6135 135.917 95.2255C134.256 95.7151 130.957 96.3491 129.912 97.7909C130.101 97.9677 130.265 98.1685 130.4 98.3882Z" fill="#BE6F72"/>
<path d="M121.844 77.6498C120.833 78.0537 119.645 78.5188 118.716 77.9533C118.033 77.5347 117.752 76.6657 117.794 75.8702C117.836 75.0746 118.142 74.3206 118.383 73.5618C118.876 72.0025 119.142 70.3795 119.692 68.8276C120.242 67.2756 121.139 65.7799 122.564 64.9599C125.187 63.452 128.581 64.698 131.492 63.8632C132.725 63.5132 133.797 62.8082 134.943 62.255C136.09 61.7018 137.379 61.2758 138.616 61.572C140.066 61.9074 141.136 63.1191 142.486 63.7359C143.965 64.4116 145.735 64.3651 147.081 65.2683C148.035 65.9097 148.637 66.9451 149.172 67.961C150.883 71.2258 152.234 74.6647 153.202 78.2177C153.589 79.4899 153.81 80.8062 153.86 82.1343C153.872 83.8331 153.409 85.4977 152.95 87.1378L152.211 89.7326C151.937 90.7117 151.656 91.6909 151.139 92.577C150.621 93.4632 149.822 94.2098 148.834 94.4668C147.601 94.7826 146.167 94.1706 145.629 93.025C145.299 92.3151 145.314 91.5024 145.297 90.7215C145.269 89.1923 145.104 87.6685 144.804 86.1684C144.651 85.4169 144.446 84.6361 143.931 84.0681C143.265 83.3338 142.205 83.089 141.219 83.0719C140.066 83.0572 138.801 83.3681 138.128 84.2958C137.588 85.0449 137.495 86.0975 136.777 86.6825C136.458 86.9254 136.08 87.0785 135.68 87.1256C134.867 87.2263 134.042 87.0531 133.339 86.6337C132.637 86.2144 132.096 85.573 131.803 84.8123C131.576 84.1661 131.465 83.3632 130.849 83.0596C130.528 82.9005 130.146 82.9299 129.804 82.8271C128.754 82.5113 128.478 81.1894 128.381 80.105C128.271 78.8345 128.697 76.3255 127.107 76.2398C125.394 76.1468 123.419 77.1284 121.844 77.6498Z" fill="#3F3D56"/>
<path d="M125.569 94.3663C125.022 94.6283 124.423 94.9342 124.208 95.4973C124.125 95.7176 124.11 95.9599 124.033 96.1851C123.686 97.1814 122.33 97.3773 121.63 98.1704C121.314 98.5713 121.102 99.0427 121.011 99.5436C120.544 101.519 120.695 103.59 121.445 105.477C121.662 106.076 121.998 106.625 122.431 107.093C123.683 108.361 125.843 108.336 127.403 107.472C128.963 106.608 130.041 105.093 130.955 103.556C131.44 102.782 131.845 101.962 132.165 101.108C132.447 100.239 132.647 99.347 132.764 98.4421C133.312 94.9147 134.027 91.0029 133.78 87.4266C133.041 87.38 131.628 87.3286 130.975 87.7888C130.156 88.3666 130.383 89.5317 130.087 90.3763C129.387 92.408 127.356 93.4802 125.569 94.3663Z" fill="#3F3D56"/>
<path d="M126.21 94.8338C125.285 94.8901 123.629 93.8743 122.702 93.9257C122.071 92.8324 121.514 91.699 121.033 90.5329C121.526 89.8304 122.32 89.659 123.52 90.5329C124.484 91.2061 125.815 93.534 126.21 94.8338Z" fill="#3F3D56"/>
<path d="M140.145 56.1571C139.141 56.6834 138.52 56.7078 138.025 56.6026C137.529 56.4973 136.546 56.9869 136.546 56.9869C127.856 59.9391 127.514 61.3319 127.514 61.3319L137.573 57.8045C139.509 56.9624 139.546 57.2586 139.546 57.2586C141.025 58.6392 142.908 57.7041 142.908 57.7041C142.908 57.7041 145.513 56.4802 144.747 55.3028C143.98 54.1253 141.15 55.6406 140.145 56.1571ZM144.335 55.9368C144.335 55.9368 143.596 57.8951 140.936 57.5768C140.936 57.5768 139.629 57.3859 140.181 56.419C140.181 56.419 142.893 55.2881 143.61 55.3688C144.328 55.4496 144.328 55.9465 144.328 55.9465L144.335 55.9368Z" fill="#E8E8F0"/>
<path opacity="0.1" d="M140.145 56.1571C139.141 56.6834 138.52 56.7078 138.025 56.6026C137.529 56.4973 136.546 56.9869 136.546 56.9869C127.856 59.9391 127.514 61.3319 127.514 61.3319L137.573 57.8045C139.509 56.9624 139.546 57.2586 139.546 57.2586C141.025 58.6392 142.908 57.7041 142.908 57.7041C142.908 57.7041 145.513 56.4802 144.747 55.3028C143.98 54.1253 141.15 55.6406 140.145 56.1571ZM144.335 55.9368C144.335 55.9368 143.596 57.8951 140.936 57.5768C140.936 57.5768 139.629 57.3859 140.181 56.419C140.181 56.419 142.893 55.2881 143.61 55.3688C144.328 55.4496 144.328 55.9465 144.328 55.9465L144.335 55.9368Z" fill="black"/>
<path d="M140.697 50.6984C139.193 50.7473 138.88 51.8636 138.88 51.8636C138.579 52.2203 138.402 52.6644 138.377 53.1291C138.352 53.5939 138.479 54.0543 138.739 54.4412L136.07 57.0776C135.564 57.2714 135.129 57.6128 134.822 58.0567C134.822 58.0567 128.961 63.1973 129.047 63.6649C129.047 63.6649 130.003 64.1544 136.07 58.6638L137.662 57.2636C137.662 57.2636 138.015 54.6468 140.502 54.1499C140.502 54.1499 140.748 54.2576 140.879 53.675C141.018 53.3956 141.204 53.1416 141.429 52.9235C141.759 52.62 142.2 50.647 140.697 50.6984ZM141.118 52.4682C141.118 52.4682 140.312 54.5342 139.163 53.9369C138.015 53.3396 139.131 51.9615 139.131 51.9615C141.123 50.0374 141.118 52.4682 141.118 52.4682Z" fill="#E8E8F0"/>
<path opacity="0.1" d="M136.122 58.1057C136.297 58.1057 136.44 57.9643 136.44 57.7899C136.44 57.6155 136.297 57.4741 136.122 57.4741C135.946 57.4741 135.804 57.6155 135.804 57.7899C135.804 57.9643 135.946 58.1057 136.122 58.1057Z" fill="black"/>
<path d="M163.939 47.805C163.011 47.3195 162.048 46.9039 161.058 46.5614C159.741 46.1907 158.388 45.9609 157.022 45.876C152.707 45.468 148.378 45.2314 144.037 45.1661C143.27 45.1661 142.486 45.149 141.759 45.4109C141.109 45.6584 140.521 46.0416 140.033 46.5345C139.189 47.3364 138.518 48.3009 138.061 49.3692C137.915 49.6368 137.871 49.9482 137.938 50.2455C138.037 50.5295 138.431 50.7179 138.655 50.5172C138.082 50.9765 137.66 51.5964 137.446 52.2966C137.231 52.9968 137.233 53.7448 137.452 54.4436C137.11 54.6213 136.82 54.8837 136.61 55.2053C136.399 55.5269 136.276 55.8969 136.252 56.2796C138.044 56.6091 139.889 56.5202 141.641 56.0201C141.118 55.8879 140.578 56.375 140.546 56.9087C140.55 57.1768 140.628 57.4387 140.772 57.6655C140.916 57.8923 141.12 58.0751 141.362 58.1938C141.851 58.4236 142.39 58.5295 142.93 58.5022C145.018 58.5022 147.049 57.7997 149.132 57.7091C150.724 57.6381 152.366 57.9245 153.887 57.4643C155.652 56.9209 157.227 55.3812 159.046 55.7019C160.498 55.9589 161.445 57.2979 162.391 58.419C163.905 60.2084 165.776 61.6576 167.632 63.0945C169.062 64.2009 170.555 65.3368 172.328 65.7113C172.858 65.8548 173.421 65.8283 173.935 65.6354C174.365 65.407 174.726 65.069 174.98 64.6563C176.891 61.9636 176.893 58.5732 176.782 55.4179C176.725 53.8047 176.37 53.5869 174.867 52.9186C173.122 52.1402 171.383 51.343 169.651 50.527C167.738 49.6392 165.834 48.7319 163.939 47.805Z" fill="#FBBEBE"/>
<path d="M183.919 53.8462C183.625 54.0206 183.315 54.1658 182.992 54.2795C182.452 54.4068 181.903 54.1792 181.378 54.0029C179.159 53.2685 176.694 53.4423 174.55 52.5342C175.253 56.5428 174.332 60.665 171.988 64.0026C171.545 64.6292 170.96 65.2706 170.191 65.3195C170.534 66.3648 171.589 66.9964 172.59 67.4664C174.188 68.2175 175.86 68.8032 177.579 69.2142C178.072 69.3292 178.674 69.3855 178.96 68.9694C179.132 68.7246 179.206 68.306 179.509 68.3207C179.973 68.8103 179.82 69.8139 180.461 70.0342C180.661 70.0848 180.87 70.0848 181.07 70.0342L182.499 69.7894C182.928 69.7525 183.341 69.6113 183.702 69.3782C183.928 69.1832 184.115 68.9473 184.252 68.683C185.854 65.9731 186.471 62.8374 186.717 59.7408C186.838 58.2035 186.988 56.5732 186.882 55.031C186.784 53.7092 185.078 53.3102 183.919 53.8462Z" fill="#E8E8F0"/>
<path opacity="0.1" d="M183.919 53.8462C183.625 54.0206 183.315 54.1658 182.992 54.2795C182.452 54.4068 181.903 54.1792 181.378 54.0029C179.159 53.2685 176.694 53.4423 174.55 52.5342C175.253 56.5428 174.332 60.665 171.988 64.0026C171.545 64.6292 170.96 65.2706 170.191 65.3195C170.534 66.3648 171.589 66.9964 172.59 67.4664C174.188 68.2175 175.86 68.8032 177.579 69.2142C178.072 69.3292 178.674 69.3855 178.96 68.9694C179.132 68.7246 179.206 68.306 179.509 68.3207C179.973 68.8103 179.82 69.8139 180.461 70.0342C180.661 70.0848 180.87 70.0848 181.07 70.0342L182.499 69.7894C182.928 69.7525 183.341 69.6113 183.702 69.3782C183.928 69.1832 184.115 68.9473 184.252 68.683C185.854 65.9731 186.471 62.8374 186.717 59.7408C186.838 58.2035 186.988 56.5732 186.882 55.031C186.784 53.7092 185.078 53.3102 183.919 53.8462Z" fill="black"/>
<path d="M101.283 133.249C100.581 132.353 99.8584 131.403 98.8182 130.931C98.2189 130.691 97.5879 130.537 96.9447 130.475C93.4764 129.986 90.0007 129.476 86.5004 129.381C85.3566 129.349 84.129 129.381 83.1972 130.044C82.1299 130.801 81.7182 132.194 81.659 133.493C81.5954 135.041 81.9048 136.582 82.5617 137.987C83.2185 139.392 84.2038 140.621 85.4355 141.572C87.5308 143.158 90.1782 143.821 92.7616 144.345C94.1198 144.622 95.4854 144.869 96.856 145.079C98.2266 145.29 99.6218 145.456 100.945 145.877C103.775 146.778 106.272 148.815 109.24 148.984C109.38 149.005 109.523 148.981 109.647 148.915C109.777 148.811 109.865 148.663 109.894 148.499C110.547 146.21 112.812 140.729 109.894 139.129C108.368 138.294 106.674 138.257 105.18 137.197C103.687 136.137 102.417 134.695 101.283 133.249Z" fill="#BE6F72"/>
<path d="M76.3645 148.443C74.4442 146.783 71.7943 145.904 70.3991 143.792C69.7853 142.862 69.4747 141.77 69.1666 140.698L68.2594 137.462C68.1895 137.263 68.1578 137.053 68.1658 136.842C68.2348 136.167 69.0359 135.846 69.7113 135.741C73.1624 135.207 76.7564 136.588 79.3398 138.923C81.9231 141.258 83.5821 144.48 84.5558 147.819C84.6243 147.988 84.6347 148.176 84.5854 148.352C84.501 148.509 84.3678 148.634 84.2057 148.71C82.9584 149.444 81.2822 150.514 79.8254 150.739C78.3685 150.964 77.4022 149.329 76.3645 148.443Z" fill="#BE6F72"/>
<path d="M160.614 134.49L170.721 138.507C171.68 138.888 172.469 139.598 172.944 140.508C173.42 141.419 173.55 142.468 173.311 143.466L165.791 174.88H146.987L150.261 139.141C150.261 139.141 157.409 133.266 160.614 134.49Z" fill="#3F3D56"/>
<path d="M170.376 130.72C170.189 131.126 169.913 131.528 169.955 131.971C169.979 132.235 170.117 132.485 170.098 132.747C170.058 133.261 169.459 133.547 168.941 133.552C168.424 133.557 167.904 133.391 167.393 133.479C166.555 133.621 165.988 134.387 165.264 134.83C164.253 135.447 162.991 135.41 161.813 135.515C159.348 135.736 157.016 136.654 154.785 137.699C153.269 138.409 151.659 139.32 151.087 140.881C150.266 143.084 151.859 145.405 152.211 147.735C152.306 148.52 152.329 149.311 152.28 150.1C152.021 158.33 151.575 166.655 151.102 174.875L60.7437 174.98L65.193 167.238C69.5315 159.686 73.9858 151.992 80.5305 146.218C81.5013 145.347 82.5919 144.619 83.7695 144.054L89.0176 148.705C89.4378 149.12 89.9253 149.461 90.4597 149.716C91.4457 150.115 92.55 149.887 93.6075 149.921C95.6412 149.987 97.4998 151.018 99.2648 152.024C100.559 152.722 101.805 153.506 102.992 154.372C103.687 154.9 104.69 155.231 105.415 155.718L105.245 146.93C105.228 146.137 105.215 145.324 105.454 144.568C105.918 143.099 107.242 142.061 107.878 140.663C108.166 140.034 108.307 139.349 108.548 138.705C108.89 137.878 109.314 137.086 109.815 136.343L113.086 131.124C113.895 129.836 114.701 128.549 115.578 127.308C119.416 121.871 124.583 117.516 129.609 113.147C129.493 111.901 129.782 110.652 130.435 109.582C130.693 109.226 130.906 108.841 131.071 108.434C131.178 107.952 131.208 107.457 131.162 106.966C131.162 106.841 131.162 106.721 131.162 106.589C131.217 105.788 131.554 105.032 132.114 104.454C132.691 103.859 133.462 103.497 134.221 103.159C138.151 101.414 142.236 100.039 146.423 99.0517C147.091 98.895 147.799 98.7481 148.457 98.9464C148.657 99.5853 149.337 99.8105 150.017 99.9721L150.454 100.072C151.609 100.32 152.687 100.843 153.594 101.595C154.548 102.422 155.204 103.529 155.842 104.618C160.642 112.801 162.853 123.538 170.278 129.484C170.637 129.765 170.563 130.328 170.376 130.72Z" fill="#FEA051"/>
<path opacity="0.1" d="M200.654 30.2094C198.056 35.8812 192.936 41.4698 186.251 41.4698C185.705 41.4701 185.16 41.4431 184.617 41.389C184.384 41.085 184.125 40.8016 183.843 40.542C182.721 39.509 181.131 39.2422 180.029 38.3389C180.7 37.1688 182.189 36.1064 183.202 35.2129C184.296 34.2517 185.432 33.3403 186.608 32.4786C188.96 30.754 191.464 29.244 194.09 27.9672C195.756 27.1569 197.497 26.4323 199.335 26.1851C199.567 26.1333 199.809 26.1547 200.028 26.2463C200.314 26.403 200.418 26.7555 200.487 27.0712C200.829 28.6379 200.368 28.6183 200.654 30.2094Z" fill="black"/>
<path d="M186.251 40.9778C195.372 40.9778 202.767 33.6349 202.767 24.5769C202.767 15.519 195.372 8.17603 186.251 8.17603C177.13 8.17603 169.735 15.519 169.735 24.5769C169.735 33.6349 177.13 40.9778 186.251 40.9778Z" fill="#FBBEBE"/>
<path d="M220.645 79.1233C220.376 81.1062 219.907 83.0572 219.245 84.9468C218.998 85.6347 218.695 86.3054 218.382 86.9664C216.546 90.8316 215.537 95.0101 215.057 99.2597C215.02 99.5942 214.958 99.9256 214.872 100.251C214.51 101.622 213.745 102.846 213.161 104.136C212.565 105.529 212.071 106.963 211.682 108.427C211.542 108.794 211.494 109.19 211.544 109.58C211.635 109.994 211.936 110.314 212.148 110.689C213.243 112.562 211.978 114.85 211.551 116.97C211.406 117.705 211.342 118.503 210.861 119.075C210.452 119.565 209.816 119.79 209.212 119.996C200.604 122.902 191.794 125.18 182.851 126.811C181.518 127.056 180.14 127.283 178.816 127.038C177.492 126.794 176.173 125.981 175.72 124.713C175.458 123.979 175.503 123.181 175.525 122.402C175.574 120.767 175.525 119.122 175.436 117.474C175.15 112.052 174.502 106.611 175.929 101.416C176.356 99.8839 176.957 98.4054 177.44 96.8901C178.384 93.9355 178.629 90.8805 178.865 87.8158C179.06 85.2895 179.25 82.7535 179.819 80.2616C180.243 78.4036 179.962 76.4722 179.937 74.5678C179.889 70.2096 181.178 65.9401 183.635 62.3283C184.061 61.7041 184.53 61.0872 184.754 60.37C185.07 59.3419 184.853 58.2379 184.71 57.1706C184.35 54.4494 184.495 51.6858 185.139 49.0166C185.341 48.0179 185.726 47.0646 186.275 46.204C186.889 45.3154 187.769 44.6447 188.649 44.0132C193.758 40.3555 199.395 37.4875 205.369 35.5067C205.919 36.8873 206.446 38.5005 206.868 39.9129C206.925 40.1039 206.964 40.3462 206.806 40.4686C206.649 40.591 206.486 40.5249 206.313 40.5298C206.135 40.549 205.967 40.6212 205.831 40.737C205.695 40.8527 205.598 41.0067 205.552 41.1785C205.465 41.5251 205.498 41.8905 205.645 42.2164C205.981 43.0732 206.703 43.7121 207.398 44.3167L210.893 47.3447C211.312 47.7335 211.768 48.0796 212.256 48.3777C212.695 48.6225 213.173 48.7963 213.625 49.0215C215.434 49.9297 216.684 51.6995 217.381 53.5893C218.079 55.4791 217.763 57.7507 218.673 59.545C221.695 65.4934 221.67 72.5311 220.645 79.1233Z" fill="#E8E8F0"/>
<path d="M218.348 141.363C219.41 145.615 219.384 150.062 218.272 154.301C218.072 155.057 217.838 155.84 217.996 156.606C218.087 157.042 218.301 157.451 218.351 157.894C218.372 158.298 218.328 158.703 218.22 159.094C217.126 164.234 217.518 169.575 217.959 174.821C217.771 174.821 217.712 174.907 217.515 174.907H212.765C212.681 173.529 210.956 172.496 210.113 171.397C209.297 170.319 208.733 169.075 208.461 167.755C208.19 166.434 208.217 165.07 208.542 163.762C209.282 160.824 211.461 158.477 212.578 155.669C213.81 152.58 213.704 149.082 215.013 146.027C215.765 144.262 217.17 142.884 218.348 141.363Z" fill="#3F3D56"/>
<path opacity="0.1" d="M218.348 141.363C219.41 145.615 219.384 150.062 218.272 154.301C218.072 155.057 217.838 155.84 217.996 156.606C218.087 157.042 218.301 157.451 218.351 157.894C218.372 158.298 218.328 158.703 218.22 159.094C217.126 164.234 217.518 169.575 217.959 174.821C217.771 174.821 217.712 174.907 217.515 174.907H212.765C212.681 173.529 210.956 172.496 210.113 171.397C209.297 170.319 208.733 169.075 208.461 167.755C208.19 166.434 208.217 165.07 208.542 163.762C209.282 160.824 211.461 158.477 212.578 155.669C213.81 152.58 213.704 149.082 215.013 146.027C215.765 144.262 217.17 142.884 218.348 141.363Z" fill="black"/>
<path d="M208.379 117.802C204.341 117.161 200.429 119.181 196.529 120.407C190.571 122.28 184.012 122.395 178.508 125.335C178.016 125.57 177.57 125.89 177.191 126.28C176.745 126.829 176.463 127.492 176.38 128.194C176.134 129.744 176.436 131.331 177.236 132.686C177.578 133.263 178.01 133.795 178.276 134.414C178.907 135.883 178.485 137.577 178.377 139.182C178.13 142.769 179.531 146.259 179.812 149.843C179.979 151.955 179.76 154.115 180.26 156.176C180.573 157.468 181.162 158.687 181.406 159.994C181.651 161.302 181.545 162.579 181.626 163.872C181.855 167.576 183.554 171.174 183.139 174.863L215.185 174.968C213.997 170.863 213.008 166.618 214.085 162.484C214.459 161.177 214.924 159.897 215.476 158.653C217.268 154.352 219.109 150.039 220.098 145.491C221.086 140.942 221.175 136.086 219.501 131.738C217.638 126.891 213.676 122.86 212.813 117.744C211.334 117.548 209.86 118.037 208.379 117.802Z" fill="#3F3D56"/>
<path d="M174.749 16.5771C174.438 15.9309 173.558 15.5049 172.967 15.9137C172.375 16.3225 172.452 17.2356 172.306 17.97C172.025 19.4142 170.581 20.3983 169.102 20.6284C168.409 20.7385 167.637 20.6945 167.1 20.249C166.754 19.9198 166.499 19.5075 166.36 19.0519C164.881 15.1353 165.781 10.5626 168.202 7.14538C168.715 6.37963 169.353 5.70312 170.088 5.143C172.126 3.67426 174.853 3.67426 177.374 3.75259C177.886 3.80773 178.404 3.74834 178.89 3.57879C179.261 3.38524 179.6 3.13771 179.896 2.84442C182.285 0.758817 185.585 -0.117528 188.77 0.0220017C191.955 0.161532 195.019 1.24595 197.849 2.68776C199.202 3.37562 200.528 4.1565 201.588 5.24336C204.135 7.84547 204.756 11.7009 205.256 15.2944C205.794 19.1719 206.329 23.1571 205.424 26.9684C204.911 29.1275 203.945 31.2376 204.058 33.4529C202.011 34.0336 199.93 34.4905 197.827 34.8213C196.841 34.9755 195.702 35.0661 194.98 34.3733C194.674 34.0482 194.451 33.6555 194.329 33.2277C193.547 30.934 193.809 28.3148 192.628 26.1949C192.134 25.3306 191.429 24.6041 190.577 24.0828C189.725 23.5616 188.754 23.2625 187.755 23.2134C186.98 23.1864 186.1 23.3749 185.704 24.0334C185.551 24.3564 185.434 24.6944 185.354 25.0419C184.806 26.6796 182.566 27.4898 181.089 26.5768C180.35 26.1166 179.844 25.3528 179.176 24.78C178.328 24.0579 177.241 23.6858 176.29 23.1032C173.12 21.1522 175.977 19.1352 174.749 16.5771Z" fill="#3F3D56"/>
<path d="M150.027 99.9745C148.679 100.403 147.451 101.179 146.14 101.725C143.83 102.682 141.291 102.905 138.868 103.517C136.54 104.137 134.296 105.034 132.185 106.19C132.03 106.273 131.542 106.679 131.152 106.958C131.152 106.834 131.152 106.714 131.152 106.581C131.207 105.781 131.544 105.025 132.104 104.447C132.681 103.852 133.452 103.49 134.211 103.152C138.144 101.409 142.232 100.036 146.423 99.0517C147.091 98.895 147.799 98.7481 148.457 98.9464C148.666 99.5853 149.347 99.8105 150.027 99.9745Z" fill="#3F3D56"/>
<path opacity="0.1" d="M115.08 162.751C117.732 165.688 120.111 168.895 123.197 171.372C119.635 166.675 114.525 163.539 109.906 159.997C108.969 159.277 107.096 158.256 106.529 157.216C105.634 155.586 107.611 156.744 108.432 157.187C110.995 158.57 113.145 160.611 115.08 162.751Z" fill="black"/>
<path opacity="0.1" d="M210.514 77.0059C210.388 78.0634 209.991 79.067 209.59 80.0511C208.604 82.499 207.546 84.9224 206.057 87.0937C205.032 88.5893 203.812 89.9406 202.742 91.402C201.644 92.9531 200.636 94.5656 199.725 96.2316C198.043 99.1887 196.405 102.17 194.809 105.176C194.048 106.616 193.291 108.067 192.307 109.367C191.617 110.244 190.876 111.081 190.089 111.874C188.363 113.68 186.591 115.35 185.048 117.308C184.284 118.287 183.009 118.664 181.819 118.997C181.42 119.129 181.005 119.203 180.586 119.217C180.164 119.188 179.748 119.097 179.354 118.946C178.024 118.543 176.723 118.052 175.459 117.477C175.173 112.055 174.525 106.613 175.952 101.419C176.378 99.8864 176.98 98.4078 177.463 96.8926C178.407 93.938 178.651 90.883 178.888 87.8182C179.181 87.2038 179.494 86.5943 179.797 86.0019C181.853 81.9678 183.586 77.5248 183.051 73.0281C182.915 72.2174 182.82 71.4004 182.768 70.5802C182.773 69.5745 182.943 68.5765 183.273 67.6256C184.011 65.3796 185.23 63.3192 186.847 61.5865C188.465 59.8538 190.441 58.49 192.64 57.5892C193.335 57.2669 194.092 57.0998 194.859 57.0996C195.845 57.151 196.789 57.6602 197.75 57.4741C201.006 58.8964 203.642 61.3247 205.611 64.267C207.581 67.2094 207.689 71.1407 209.831 73.9607C210.465 74.8175 210.637 75.9508 210.514 77.0059Z" fill="black"/>
<path d="M139.24 63.7212L139.137 63.4984L135.109 65.3441L134.436 65.6526L133.766 65.9586L139.445 78.1858L140.116 77.8774L140.789 77.5689L144.816 75.7232L144.713 75.5029L140.685 77.3486L140.581 77.1259L144.609 75.2801L144.506 75.0574L140.478 76.9031L140.374 76.6803L144.402 74.8346L144.301 74.6119L140.271 76.4576L140.167 76.2373L144.198 74.3915L144.094 74.1688L140.064 76.0145L139.96 75.7917L143.991 73.946L143.887 73.7233L139.859 75.569L139.756 75.3462L143.784 73.5005L143.68 73.2802L139.652 75.1259L139.549 74.9032L143.576 73.0575L143.473 72.8347L139.445 74.6804L139.342 74.4576L143.372 72.6119L143.268 72.3892L139.238 74.2349L139.134 74.0146L143.165 72.1664L143.061 71.9461L139.031 73.7918L138.93 73.5691L142.958 71.7233L142.854 71.5006L138.826 73.3463L138.723 73.1235L142.751 71.2778L142.647 71.0551L138.619 72.9008L138.516 72.6805L142.544 70.8348L142.443 70.612L138.412 72.4577L138.309 72.235L142.339 70.3892L142.235 70.1665L138.205 72.0122L138.104 71.7894L142.132 69.9462L142.028 69.7234L138.001 71.5691L137.897 71.3464L141.925 69.5007L141.821 69.2779L137.793 71.1236L137.69 70.9009L141.718 69.0551L141.617 68.8324L137.586 70.6805L137.483 70.4578L141.513 68.6121L141.41 68.3893L137.379 70.235L137.276 70.0123L141.306 68.1666L141.203 67.9438L137.175 69.7895L137.071 69.5667L141.099 67.721L140.996 67.5007L136.968 69.3464L136.864 69.1237L140.892 67.278L140.789 67.0552L136.761 68.9009L136.657 68.6782L140.687 66.8324L140.584 66.6121L136.554 68.4554L136.45 68.2351L140.48 66.3894L140.377 66.1666L136.347 68.0123L136.245 67.7896L140.273 65.9439L140.17 65.7211L136.142 67.5668L136.038 67.3441L140.066 65.4983L139.963 65.278L135.935 67.1237L135.831 66.901L139.859 65.0553L139.758 64.8325L135.728 66.6782L135.624 66.4555L139.655 64.6098L139.551 64.387L135.521 66.2327L135.417 66.0124L139.448 64.1667L139.344 63.9439L135.314 65.7896L135.213 65.5669L139.24 63.7212Z" fill="black"/>
<path opacity="0.1" d="M151.886 90.6138C151.366 91.4877 150.569 92.2465 149.581 92.5035C148.348 92.8193 146.914 92.2073 146.376 91.0617C146.046 90.3518 146.061 89.5391 146.044 88.7583C146.016 87.229 145.851 85.7052 145.551 84.2052C145.398 83.4537 145.193 82.6728 144.678 82.1049C144.012 81.3705 142.952 81.1257 141.966 81.1086C140.813 81.0939 139.548 81.4048 138.875 82.3325C138.335 83.0816 138.242 84.1342 137.524 84.7192C137.206 84.9621 136.827 85.1152 136.428 85.1623C135.614 85.263 134.79 85.0898 134.087 84.6705C133.384 84.2511 132.843 83.6098 132.55 82.849C132.323 82.2028 132.212 81.3999 131.596 81.0964C131.276 80.9372 130.893 80.9666 130.551 80.8638C129.501 80.548 129.225 79.2262 129.129 78.1417C129.018 76.8713 129.444 74.3622 127.854 74.2765C126.153 74.1835 124.179 75.1651 122.604 75.6865C121.593 76.0904 120.405 76.5555 119.475 75.99C118.793 75.5714 118.512 74.7025 118.554 73.9069C118.595 73.1113 118.901 72.3574 119.143 71.5985C119.557 70.3158 119.806 68.9842 120.185 67.6819C120.007 68.0503 119.848 68.4278 119.71 68.8128C119.162 70.3574 118.906 71.9951 118.403 73.547C118.157 74.3059 117.856 75.0598 117.814 75.8554C117.772 76.651 118.061 77.52 118.736 77.9386C119.665 78.504 120.853 78.0389 121.864 77.635C123.439 77.1136 125.414 76.132 127.115 76.225C128.705 76.3107 128.278 78.8198 128.389 80.0903C128.485 81.1747 128.761 82.4965 129.811 82.8123C130.154 82.9151 130.536 82.8858 130.857 83.0449C131.473 83.3484 131.596 84.1513 131.81 84.7976C132.103 85.5583 132.644 86.1996 133.347 86.619C134.05 87.0383 134.874 87.2115 135.688 87.1108C136.087 87.0637 136.466 86.9107 136.785 86.6678C137.502 86.0827 137.596 85.0301 138.136 84.2811C138.809 83.3484 140.073 83.0375 141.227 83.0571C142.213 83.0718 143.285 83.3166 143.938 84.0534C144.454 84.6213 144.658 85.4022 144.811 86.1537C145.112 87.6538 145.277 89.1775 145.304 90.7068C145.321 91.4877 145.304 92.3004 145.637 93.0102C146.172 94.1559 147.609 94.7678 148.841 94.4521C149.827 94.195 150.626 93.4362 151.146 92.5623C151.542 91.8487 151.847 91.0889 152.053 90.3004C151.999 90.413 151.945 90.5134 151.886 90.6138Z" fill="black"/>
<path d="M164.566 88.9882C162.594 87.1082 160.812 85.0275 159.042 82.9517C157.346 80.9664 155.645 78.9714 154.279 76.7512C153.434 75.3779 152.679 73.8798 151.38 72.9178C150.394 72.1834 149.189 71.8407 148.099 71.2801C147.315 70.8762 146.593 70.3646 145.819 69.946C144.131 69.0397 142.231 68.5946 140.312 68.656C139.516 68.6829 138.611 68.8665 138.202 69.547C138.062 69.7796 137.995 70.0513 137.852 70.2814C137.411 71.0158 136.349 71.2238 135.986 71.9949C135.375 73.2923 137.219 74.4844 137.335 75.9115C137.389 76.6263 136.992 77.2922 136.876 77.9996C136.679 79.2236 137.317 80.3912 137.934 81.4585C139.252 83.7448 140.857 86.249 143.448 86.8243C144.365 87.0274 145.334 86.9613 146.228 87.2502C146.95 87.5216 147.617 87.9168 148.2 88.4178C150.635 90.323 152.78 92.5663 154.57 95.0786C155.403 96.2462 156.158 97.4653 156.998 98.6256C159.673 102.302 163.184 105.299 167.245 107.374L170.27 97.8276C170.736 96.3588 171.103 94.3442 169.777 93.1986C168.115 91.7127 166.2 90.5402 164.566 88.9882Z" fill="#FBBEBE"/>
<path d="M197.492 56.2599C196.53 56.4435 195.576 55.9368 194.6 55.8854C193.833 55.8851 193.076 56.0522 192.382 56.375C190.183 57.2764 188.207 58.6404 186.59 60.373C184.972 62.1056 183.753 64.1657 183.014 66.4113C182.688 67.3662 182.52 68.3673 182.516 69.3757C182.531 70.1958 182.704 71.0036 182.8 71.8236C183.335 76.3131 181.602 80.7584 179.549 84.7975C178.412 87.0275 177.13 89.3799 177.399 91.8645C177.434 92.1974 177.488 92.572 177.283 92.8437C177.037 93.1668 176.504 93.1839 176.275 93.5242C176.046 93.8645 176.255 94.3785 176.073 94.7628C175.826 95.3063 175.023 95.2402 174.448 95.0468C172.874 94.5177 171.416 93.6952 170.152 92.6234C168.103 93.8106 165.912 95.2255 165.239 97.4825C165.081 98.0583 164.971 98.6462 164.911 99.24L163.854 108.004C163.713 109.164 163.644 110.525 164.527 111.298C166.048 112.635 168.757 110.904 170.384 112.114C170.8 112.422 171.071 112.882 171.37 113.301C173.147 115.722 176.206 116.787 179.075 117.707C179.471 117.856 179.886 117.947 180.308 117.976C180.727 117.965 181.143 117.89 181.54 117.756C182.733 117.423 184.005 117.036 184.77 116.069C186.315 114.111 188.087 112.442 189.813 110.635C190.599 109.841 191.34 109.005 192.032 108.128C193.018 106.826 193.772 105.374 194.534 103.935C196.126 100.929 197.763 97.9476 199.444 94.9905C200.365 93.3313 201.381 91.7261 202.488 90.1828C203.56 88.7141 204.778 87.3677 205.804 85.8745C207.283 83.7008 208.345 81.2676 209.336 78.8319C209.738 77.8528 210.135 76.8418 210.263 75.7868C210.391 74.7317 210.219 73.5983 209.573 72.7489C207.431 69.9265 207.325 65.9976 205.355 63.0553C203.385 60.1129 200.75 57.6797 197.492 56.2599Z" fill="#E8E8F0"/>
<path d="M139.307 64.7247C139.249 64.7611 139.201 64.8095 139.164 64.8666C139.127 64.9237 139.104 64.9881 139.095 65.0552C139.095 65.1776 139.196 65.2731 139.25 65.3832C139.401 65.6966 139.159 66.0589 138.883 66.2743C138.607 66.4897 138.272 66.6561 138.121 66.9719C138.098 67.0138 138.088 67.0614 138.092 67.109C138.108 67.1735 138.147 67.2305 138.2 67.2706C138.362 67.4559 138.573 67.5931 138.809 67.6671C139.186 67.7455 139.548 67.4982 139.869 67.295C140.216 67.0768 140.587 66.8962 140.973 66.7565C141.093 66.7214 141.205 66.6659 141.306 66.5925C141.429 66.4705 141.505 66.3093 141.52 66.1372C141.604 65.5228 141.274 64.9328 140.897 64.4237C140.443 63.8239 139.694 64.3943 139.307 64.7247Z" fill="#3F3D56"/>
<path d="M101.487 137.269L75.9001 124.299C75.7134 124.205 75.4847 124.278 75.3894 124.464L68.8685 137.151C68.7731 137.337 68.8473 137.564 69.034 137.658L94.6213 150.627C94.808 150.722 95.0367 150.648 95.132 150.463L101.653 137.776C101.748 137.59 101.674 137.363 101.487 137.269Z" fill="#3F3D56"/>
<path d="M99.132 137.595L77.0576 126.406L71.4567 137.303L93.5311 148.492L99.132 137.595Z" fill="#E8E8F0"/>
<path d="M73.772 131.612C73.8394 131.481 73.7319 131.293 73.5319 131.191C73.3318 131.09 73.1149 131.114 73.0474 131.245C72.98 131.377 73.0875 131.565 73.2876 131.667C73.4876 131.768 73.7045 131.744 73.772 131.612Z" fill="#E6E8EC"/>
<path d="M97.9116 143.88C98.0224 143.664 97.8448 143.354 97.515 143.187C97.1852 143.02 96.828 143.059 96.7172 143.274C96.6064 143.49 96.784 143.8 97.1138 143.967C97.4436 144.134 97.8008 144.095 97.9116 143.88Z" fill="#E6E8EC"/>
<g opacity="0.1">
<path opacity="0.1" d="M205.419 25.2453C204.906 27.4044 203.94 29.5144 204.053 31.7298C202.006 32.3105 199.925 32.7674 197.822 33.0982C196.836 33.2524 195.697 33.3429 194.975 32.6502C194.669 32.325 194.446 31.9323 194.324 31.5046C193.543 29.2109 193.804 26.5917 192.623 24.4718C192.129 23.6074 191.424 22.881 190.572 22.3597C189.72 21.8385 188.749 21.5394 187.75 21.4902C186.976 21.4633 186.096 21.6518 185.699 22.3103C185.547 22.6333 185.429 22.9713 185.349 23.3188C184.802 24.9565 182.561 25.7667 181.084 24.8537C180.345 24.3934 179.839 23.6297 179.171 23.0569C178.323 22.3348 177.236 21.9627 176.285 21.3801C175.427 20.8562 175.015 20.3275 174.84 19.7816C174.623 20.9591 174.562 22.041 176.285 23.0936C177.236 23.6762 178.323 24.0483 179.171 24.7704C179.839 25.3383 180.335 26.107 181.084 26.5672C182.563 27.4753 184.802 26.67 185.349 25.0324C185.429 24.6849 185.547 24.3468 185.699 24.0238C186.096 23.3653 186.976 23.1768 187.75 23.2038C188.749 23.2529 189.72 23.552 190.572 24.0732C191.424 24.5945 192.129 25.321 192.623 26.1853C193.804 28.3052 193.543 30.9244 194.324 33.2181C194.448 33.6494 194.675 34.0448 194.985 34.3711C195.707 35.0565 196.848 34.9732 197.832 34.819C199.935 34.4883 202.016 34.0313 204.063 33.4507C203.943 31.2353 204.916 29.1252 205.429 26.9662C205.824 25.1995 205.982 23.3887 205.9 21.5808C205.861 22.815 205.7 24.0424 205.419 25.2453Z" fill="black"/>
<path opacity="0.1" d="M174.988 17.2627C175.168 16.4575 175.082 15.6161 174.741 14.8637C174.431 14.2175 173.551 13.7915 172.959 14.2003C172.368 14.6091 172.451 15.5222 172.306 16.2566C172.025 17.7008 170.58 18.6849 169.101 18.915C168.409 19.0251 167.637 18.9811 167.1 18.5356C166.754 18.2064 166.499 17.7941 166.36 17.3385C165.982 16.3204 165.752 15.2538 165.677 14.171C165.552 15.8277 165.785 17.4919 166.36 19.0521C166.499 19.5076 166.754 19.9199 167.1 20.2491C167.637 20.6946 168.409 20.7387 169.101 20.6285C170.563 20.3984 172.015 19.4046 172.306 17.9701C172.446 17.2357 172.35 16.3471 172.962 15.9261C173.573 15.5051 174.441 15.9432 174.744 16.5895C174.849 16.8045 174.931 17.0302 174.988 17.2627Z" fill="black"/>
</g>
</g>
<defs>
<clipPath id="clip0_196_0">
<rect width="282" height="175" fill="white"/>
</clipPath>
</defs>
</svg>
