<svg width="99" height="99" viewBox="0 0 99 99" fill="none" xmlns="http://www.w3.org/2000/svg">
<path d="M49.5 97.9283C49.5 98.5202 49.9799 99.0012 50.5716 98.9884C56.707 98.8556 62.7674 97.5829 68.4428 95.232C74.4484 92.7444 79.9053 89.0983 84.5018 84.5018C89.0983 79.9053 92.7444 74.4484 95.232 68.4428C97.7196 62.4372 99 56.0004 99 49.5C99 42.9996 97.7196 36.5628 95.232 30.5572C92.7444 24.5516 89.0983 19.0947 84.5018 14.4982C79.9053 9.90171 74.4484 6.25557 68.4428 3.76796C62.7674 1.41713 56.707 0.144449 50.5716 0.0116004C49.9799 -0.00121229 49.5 0.479805 49.5 1.07167V1.07167C49.5 1.66354 49.9799 2.14208 50.5716 2.15547C56.4255 2.28796 62.2073 3.50505 67.6226 5.74816C73.3682 8.12805 78.5887 11.6163 82.9862 16.0138C87.3837 20.4113 90.8719 25.6318 93.2518 31.3774C95.6317 37.123 96.8567 43.281 96.8567 49.5C96.8567 55.719 95.6317 61.877 93.2518 67.6226C90.8719 73.3682 87.3837 78.5887 82.9862 82.9862C78.5887 87.3837 73.3682 90.8719 67.6226 93.2518C62.2073 95.495 56.4255 96.712 50.5716 96.8445C49.9799 96.8579 49.5 97.3365 49.5 97.9283V97.9283Z" fill="#FEA051"/>
<circle cx="49.5002" cy="49.5" r="42.2561" fill="url(#paint0_linear_195_3856)"/>
<path d="M38.5 49.5H60.5" stroke="white" stroke-width="2.41463" stroke-linecap="round" stroke-linejoin="round"/>
<path d="M50.875 39.875L60.5 49.5L50.875 59.125" stroke="white" stroke-width="2.41463" stroke-linecap="round" stroke-linejoin="round"/>
<defs>
<linearGradient id="paint0_linear_195_3856" x1="16.0475" y1="91.7561" x2="72.389" y2="26.6113" gradientUnits="userSpaceOnUse">
<stop stop-color="#FE9034"/>
<stop offset="0.855134" stop-color="#FEA65D"/>
</linearGradient>
</defs>
</svg>
