<svg width="99" height="99" viewBox="0 0 99 99" fill="none" xmlns="http://www.w3.org/2000/svg">
<path d="M99 49.5C99 76.8381 76.8381 99 49.5 99C22.1619 99 0 76.8381 0 49.5C0 22.1619 22.1619 0 49.5 0C76.8381 0 99 22.1619 99 49.5ZM2.14335 49.5C2.14335 75.6544 23.3456 96.8567 49.5 96.8567C75.6544 96.8567 96.8567 75.6544 96.8567 49.5C96.8567 23.3456 75.6544 2.14335 49.5 2.14335C23.3456 2.14335 2.14335 23.3456 2.14335 49.5Z" fill="white"/>
<circle cx="49.5002" cy="49.5" r="42.2561" fill="url(#paint0_linear_195_4110)"/>
<path d="M38.5 49.5H60.5" stroke="white" stroke-width="2.41463" stroke-linecap="round" stroke-linejoin="round"/>
<path d="M50.875 39.875L60.5 49.5L50.875 59.125" stroke="white" stroke-width="2.41463" stroke-linecap="round" stroke-linejoin="round"/>
<defs>
<linearGradient id="paint0_linear_195_4110" x1="16.0475" y1="91.7561" x2="72.389" y2="26.6113" gradientUnits="userSpaceOnUse">
<stop stop-color="#FE9034"/>
<stop offset="0.855134" stop-color="#FEA65D"/>
</linearGradient>
</defs>
</svg>
