<svg
  width="28"
  height="13"
  viewBox="0 0 28 13"
  fill="none"
  xmlns="http://www.w3.org/2000/svg"
>
<path
    d="M14 7.47059C11.9096 7.47059 10.1622 6.93709 8.7332 6.17647M14 7.47059C16.0904 7.47059 17.8378 6.93709 19.2668 6.17647M14 7.47059V12M8.7332 6.17647L4.9 10.0588M8.7332 6.17647C7.09595 5.30502 5.87662 4.13545 5.03816 3.12851M19.2668 6.17647L22.45 10.0588M19.2668 6.17647C20.9963 5.2559 22.2595 4.00265 23.1 2.95987M5.03816 3.12851C4.05977 1.95353 3.6 1 3.6 1M5.03816 3.12851L1 4.88235M24.4 1C24.4 1 23.9836 1.86364 23.1 2.95987M23.1 2.95987L27 4.88235"
    stroke="#FEA051"
    stroke-width="1.5"
    stroke-linecap="round"
  />
</svg>
