<svg width="70" height="70  " viewBox="0 0 175 175" fill="none" xmlns="http://www.w3.org/2000/svg">
<circle cx="87.5" cy="87.5" r="87.5" fill="#EF4A72"/>
<path d="M145.259 87.1353C142.543 85.5662 139.757 83.0923 137.007 79.4797C137.007 79.4797 124.975 60.9729 107.031 61C96.6158 61.017 90.9538 64.2127 87.8378 67.8355C84.7131 64.2195 79.0102 61.0576 68.6274 61.0576C50.6828 61.0848 38.6602 79.6288 38.6602 79.6288C35.9183 83.2516 33.1736 85.7289 30.4756 87.3115C23.4602 91.49 16.8746 89.7312 12.528 87.3386C10.1895 86.044 8.4883 84.5529 7.73999 83.6481C7.83291 84.8963 8.01675 86.1331 8.28953 87.3454C10.096 95.3635 17.579 113.525 48.2128 113.477C48.2128 113.477 77.3879 113.43 87.8817 94.2621C98.3872 113.399 127.562 113.352 127.562 113.352C158.228 113.304 165.67 95.1229 167.459 87.098C167.729 85.8854 167.91 84.6486 168 83.4007C166.57 84.917 164.946 86.1666 163.186 87.1048C158.865 89.5143 152.286 91.307 145.259 87.1353Z" fill="#FAFAFA"/>
</svg>
