<svg xmlns="http://www.w3.org/2000/svg" xmlns:xlink="http://www.w3.org/1999/xlink" width="340" zoomAndPan="magnify" viewBox="0 0 255 143.249994" height="191" preserveAspectRatio="xMidYMid meet" version="1.0"><defs><g/><clipPath id="7723db6750"><path d="M 124 75.148438 L 164.21875 75.148438 L 164.21875 104.992188 L 124 104.992188 Z M 124 75.148438 " clip-rule="nonzero"/></clipPath><clipPath id="8a20df7edb"><path d="M 38.058594 37.78125 L 73.125 37.78125 L 73.125 98.214844 L 38.058594 98.214844 Z M 38.058594 37.78125 " clip-rule="nonzero"/></clipPath></defs><g clip-path="url(#7723db6750)"><path fill="#fea051" d="M 153.207031 85.25 C 152.882812 85.617188 152.628906 85.941406 152.335938 86.230469 C 151.363281 87.1875 150.425781 88.183594 149.382812 89.058594 C 148.261719 90.007812 146.648438 89.75 145.613281 88.652344 C 145.355469 88.382812 144.902344 88.296875 144.492188 88.105469 C 144.316406 87.667969 144.734375 87.472656 144.992188 87.226562 C 147.339844 84.996094 149.160156 82.363281 150.742188 79.570312 C 151.347656 78.5 151.753906 77.316406 152.210938 76.167969 C 152.574219 75.269531 152.617188 75.140625 153.601562 75.21875 C 155.351562 75.359375 156.875 75.957031 157.980469 77.464844 C 159.902344 80.082031 161.972656 82.589844 163.414062 85.527344 C 163.644531 86.007812 163.816406 86.515625 164.140625 87.300781 C 162.703125 87.042969 161.519531 87.050781 160.761719 85.910156 C 160.296875 85.207031 159.820312 84.515625 159.179688 83.558594 C 159.015625 84.566406 158.914062 85.257812 158.789062 85.949219 C 157.851562 91.132812 155.765625 95.8125 151.855469 99.375 C 148.296875 102.621094 144.117188 104.867188 139.105469 104.929688 C 134.898438 104.976562 131.285156 103.328125 128.125 100.671875 C 126.863281 99.609375 125.792969 98.308594 124.671875 97.082031 C 124.378906 96.765625 124.21875 96.332031 124 95.949219 C 124.085938 95.867188 124.167969 95.785156 124.253906 95.703125 C 124.773438 96.023438 125.308594 96.320312 125.796875 96.679688 C 126.101562 96.90625 126.335938 97.226562 126.589844 97.515625 C 129.863281 101.21875 134 102.210938 138.683594 101.199219 C 142.257812 100.429688 145.214844 98.5 147.699219 95.855469 C 150.324219 93.070312 152.105469 89.785156 153.171875 86.113281 C 153.21875 85.949219 153.257812 85.78125 153.285156 85.613281 C 153.292969 85.539062 153.253906 85.457031 153.207031 85.25 Z M 153.207031 85.25 " fill-opacity="1" fill-rule="nonzero"/></g><g clip-path="url(#8a20df7edb)"><path fill="#ffffff" d="M 55.59375 98.171875 C 55.320312 98.171875 55.070312 98.003906 54.964844 97.75 C 54.320312 96.210938 53.164062 93.609375 51.699219 90.316406 C 44.800781 74.792969 38.0625 59.304688 38.0625 55.382812 C 38.0625 45.699219 45.925781 37.820312 55.59375 37.820312 C 65.261719 37.820312 73.128906 45.699219 73.128906 55.382812 C 73.128906 59.304688 66.390625 74.792969 59.488281 90.316406 C 58.027344 93.609375 56.871094 96.210938 56.226562 97.75 C 56.121094 98.003906 55.871094 98.171875 55.59375 98.171875 Z M 55.59375 39.191406 C 46.683594 39.191406 39.429688 46.453125 39.429688 55.382812 C 39.429688 59.34375 48.226562 79.128906 52.953125 89.761719 C 54.023438 92.171875 54.929688 94.210938 55.59375 95.742188 C 56.257812 94.210938 57.167969 92.167969 58.238281 89.757812 C 62.964844 79.128906 71.757812 59.34375 71.757812 55.382812 C 71.757812 46.453125 64.507812 39.191406 55.59375 39.191406 Z M 55.59375 39.191406 " fill-opacity="1" fill-rule="nonzero"/></g><path fill="#ffffff" d="M 55.59375 67.027344 C 49.183594 67.027344 43.964844 61.800781 43.964844 55.382812 C 43.964844 48.960938 49.183594 43.734375 55.59375 43.734375 C 62.007812 43.734375 67.222656 48.960938 67.222656 55.382812 C 67.222656 61.800781 62.007812 67.027344 55.59375 67.027344 Z M 55.59375 45.105469 C 49.9375 45.105469 45.335938 49.714844 45.335938 55.382812 C 45.335938 61.046875 49.9375 65.65625 55.59375 65.65625 C 61.25 65.65625 65.855469 61.046875 65.855469 55.382812 C 65.855469 49.714844 61.25 45.105469 55.59375 45.105469 Z M 55.59375 45.105469 " fill-opacity="1" fill-rule="nonzero"/><path fill="#ffffff" d="M 60.113281 59.046875 C 58.839844 59.046875 57.453125 58.472656 55.972656 57.332031 C 55.839844 57.230469 55.710938 57.125 55.59375 57.015625 C 55.476562 57.125 55.351562 57.230469 55.21875 57.332031 C 53.300781 58.808594 51.542969 59.335938 49.988281 58.898438 C 47.875 58.304688 47.019531 56.148438 46.984375 56.058594 C 46.886719 55.796875 46.953125 55.5 47.160156 55.308594 C 47.363281 55.117188 47.664062 55.070312 47.917969 55.191406 C 49.65625 56.011719 50.003906 55.394531 50.765625 54.035156 C 50.914062 53.773438 51.066406 53.503906 51.238281 53.238281 C 51.832031 52.3125 52.6875 51.773438 53.644531 51.722656 C 54.34375 51.683594 55.035156 51.90625 55.59375 52.332031 C 56.15625 51.90625 56.847656 51.683594 57.546875 51.722656 C 58.503906 51.773438 59.359375 52.3125 59.953125 53.238281 C 60.125 53.503906 60.277344 53.773438 60.421875 54.035156 C 61.183594 55.394531 61.535156 56.011719 63.273438 55.191406 C 63.527344 55.070312 63.828125 55.117188 64.03125 55.308594 C 64.238281 55.5 64.304688 55.796875 64.203125 56.058594 C 64.167969 56.148438 63.316406 58.304688 61.203125 58.898438 C 60.851562 58.996094 60.484375 59.046875 60.113281 59.046875 Z M 55.59375 55.304688 C 55.8125 55.304688 56.019531 55.410156 56.148438 55.589844 C 56.3125 55.816406 56.535156 56.039062 56.804688 56.246094 C 58.363281 57.441406 59.71875 57.890625 60.832031 57.578125 C 61.289062 57.449219 61.664062 57.199219 61.96875 56.921875 C 60.464844 56.910156 59.773438 55.675781 59.230469 54.707031 C 59.09375 54.464844 58.949219 54.210938 58.800781 53.976562 C 58.445312 53.425781 57.984375 53.117188 57.472656 53.089844 C 56.976562 53.0625 56.457031 53.300781 56.128906 53.714844 C 55.996094 53.875 55.800781 53.96875 55.59375 53.96875 C 55.386719 53.96875 55.191406 53.875 55.0625 53.714844 C 54.730469 53.300781 54.21875 53.0625 53.71875 53.089844 C 53.203125 53.117188 52.742188 53.425781 52.386719 53.976562 C 52.238281 54.210938 52.097656 54.464844 51.960938 54.707031 C 51.417969 55.675781 50.722656 56.910156 49.21875 56.921875 C 49.523438 57.203125 49.90625 57.453125 50.367188 57.578125 C 51.480469 57.886719 52.832031 57.4375 54.382812 56.246094 C 54.65625 56.039062 54.875 55.816406 55.042969 55.589844 C 55.171875 55.410156 55.375 55.304688 55.59375 55.304688 Z M 55.59375 55.304688 " fill-opacity="1" fill-rule="nonzero"/><g fill="#fea051" fill-opacity="1"><g transform="translate(81.471048, 70.359461)"><g><path d="M 1.203125 0 L 3.75 -18 L 8.5625 -18 L 6.015625 0 Z M 4.0625 -20.578125 L 4.703125 -25.15625 L 9.609375 -25.15625 L 8.96875 -20.578125 Z M 4.0625 -20.578125 "/></g></g></g><g fill="#fea051" fill-opacity="1"><g transform="translate(88.623885, 70.359461)"><g><path d="M 1.546875 0 L 5.28125 -25.171875 L 14.171875 -25.171875 C 17.378906 -25.171875 19.675781 -24.597656 21.0625 -23.453125 C 22.445312 -22.316406 22.976562 -20.675781 22.65625 -18.53125 C 22.476562 -17.300781 22.015625 -16.222656 21.265625 -15.296875 C 20.515625 -14.378906 19.289062 -13.578125 17.59375 -12.890625 C 18.582031 -12.617188 19.359375 -12.257812 19.921875 -11.8125 C 20.484375 -11.363281 20.890625 -10.863281 21.140625 -10.3125 C 21.398438 -9.757812 21.546875 -9.179688 21.578125 -8.578125 C 21.617188 -7.972656 21.59375 -7.375 21.5 -6.78125 C 21.15625 -4.476562 20.132812 -2.769531 18.4375 -1.65625 C 16.75 -0.550781 14.226562 0 10.875 0 Z M 7.1875 -3.9375 L 11.5625 -3.9375 C 13.007812 -3.9375 14.15625 -4.242188 15 -4.859375 C 15.851562 -5.484375 16.351562 -6.3125 16.5 -7.34375 C 16.601562 -8.082031 16.507812 -8.703125 16.21875 -9.203125 C 15.925781 -9.703125 15.488281 -10.078125 14.90625 -10.328125 C 14.320312 -10.585938 13.632812 -10.71875 12.84375 -10.71875 L 8.1875 -10.71875 Z M 8.75 -14.765625 L 13.421875 -14.765625 C 13.921875 -14.765625 14.40625 -14.820312 14.875 -14.9375 C 15.351562 -15.0625 15.789062 -15.25 16.1875 -15.5 C 16.59375 -15.757812 16.925781 -16.09375 17.1875 -16.5 C 17.457031 -16.90625 17.632812 -17.378906 17.71875 -17.921875 C 17.894531 -19.015625 17.628906 -19.835938 16.921875 -20.390625 C 16.222656 -20.953125 15.265625 -21.234375 14.046875 -21.234375 L 9.71875 -21.234375 Z M 8.75 -14.765625 "/></g></g></g><g fill="#fea051" fill-opacity="1"><g transform="translate(109.387365, 70.359461)"><g><path d="M -0.28125 0 L 12.203125 -25.171875 L 17.46875 -25.171875 L 22.46875 0 L 17.46875 0 L 16.375 -5.828125 L 7.625 -5.828125 L 4.75 0 Z M 9.421875 -10.265625 L 15.84375 -10.265625 L 14.140625 -20.265625 Z M 9.421875 -10.265625 "/></g></g></g><g fill="#fea051" fill-opacity="1"><g transform="translate(131.508432, 70.359461)"><g><path d="M 1.546875 0 L 5.28125 -25.171875 L 15.609375 -25.171875 C 17.578125 -25.171875 19.132812 -24.847656 20.28125 -24.203125 C 21.425781 -23.566406 22.207031 -22.679688 22.625 -21.546875 C 23.050781 -20.421875 23.15625 -19.125 22.9375 -17.65625 C 22.738281 -16.332031 22.375 -15.210938 21.84375 -14.296875 C 21.3125 -13.390625 20.675781 -12.632812 19.9375 -12.03125 C 19.207031 -11.425781 18.429688 -10.929688 17.609375 -10.546875 L 20.578125 0 L 15.390625 0 L 12.859375 -9.6875 L 7.984375 -9.6875 L 6.5625 0 Z M 8.578125 -13.609375 L 13.078125 -13.609375 C 13.929688 -13.609375 14.691406 -13.773438 15.359375 -14.109375 C 16.035156 -14.441406 16.585938 -14.898438 17.015625 -15.484375 C 17.453125 -16.066406 17.726562 -16.75 17.84375 -17.53125 C 18.019531 -18.6875 17.785156 -19.597656 17.140625 -20.265625 C 16.503906 -20.941406 15.632812 -21.28125 14.53125 -21.28125 L 9.71875 -21.28125 Z M 8.578125 -13.609375 "/></g></g></g><g fill="#fea051" fill-opacity="1"><g transform="translate(152.654819, 70.359461)"><g><path d="M 1.546875 0 L 5.28125 -25.171875 L 14.171875 -25.171875 C 17.378906 -25.171875 19.675781 -24.597656 21.0625 -23.453125 C 22.445312 -22.316406 22.976562 -20.675781 22.65625 -18.53125 C 22.476562 -17.300781 22.015625 -16.222656 21.265625 -15.296875 C 20.515625 -14.378906 19.289062 -13.578125 17.59375 -12.890625 C 18.582031 -12.617188 19.359375 -12.257812 19.921875 -11.8125 C 20.484375 -11.363281 20.890625 -10.863281 21.140625 -10.3125 C 21.398438 -9.757812 21.546875 -9.179688 21.578125 -8.578125 C 21.617188 -7.972656 21.59375 -7.375 21.5 -6.78125 C 21.15625 -4.476562 20.132812 -2.769531 18.4375 -1.65625 C 16.75 -0.550781 14.226562 0 10.875 0 Z M 7.1875 -3.9375 L 11.5625 -3.9375 C 13.007812 -3.9375 14.15625 -4.242188 15 -4.859375 C 15.851562 -5.484375 16.351562 -6.3125 16.5 -7.34375 C 16.601562 -8.082031 16.507812 -8.703125 16.21875 -9.203125 C 15.925781 -9.703125 15.488281 -10.078125 14.90625 -10.328125 C 14.320312 -10.585938 13.632812 -10.71875 12.84375 -10.71875 L 8.1875 -10.71875 Z M 8.75 -14.765625 L 13.421875 -14.765625 C 13.921875 -14.765625 14.40625 -14.820312 14.875 -14.9375 C 15.351562 -15.0625 15.789062 -15.25 16.1875 -15.5 C 16.59375 -15.757812 16.925781 -16.09375 17.1875 -16.5 C 17.457031 -16.90625 17.632812 -17.378906 17.71875 -17.921875 C 17.894531 -19.015625 17.628906 -19.835938 16.921875 -20.390625 C 16.222656 -20.953125 15.265625 -21.234375 14.046875 -21.234375 L 9.71875 -21.234375 Z M 8.75 -14.765625 "/></g></g></g><g fill="#ffffff" fill-opacity="1"><g transform="translate(175.205443, 70.359461)"><g><path d="M 1.546875 0 L 5.296875 -25.171875 L 22.140625 -25.171875 L 21.484375 -20.890625 L 9.6875 -20.890625 L 8.8125 -14.78125 L 18.984375 -14.78125 L 18.375 -10.578125 L 8.140625 -10.578125 L 7.21875 -4.328125 L 19.21875 -4.3125 L 18.5625 0 Z M 1.546875 0 "/></g></g></g><g fill="#ffffff" fill-opacity="1"><g transform="translate(194.437288, 70.359461)"><g><path d="M 1.546875 0 L 5.28125 -25.171875 L 15.609375 -25.171875 C 17.578125 -25.171875 19.132812 -24.847656 20.28125 -24.203125 C 21.425781 -23.566406 22.207031 -22.679688 22.625 -21.546875 C 23.050781 -20.421875 23.15625 -19.125 22.9375 -17.65625 C 22.738281 -16.332031 22.375 -15.210938 21.84375 -14.296875 C 21.3125 -13.390625 20.675781 -12.632812 19.9375 -12.03125 C 19.207031 -11.425781 18.429688 -10.929688 17.609375 -10.546875 L 20.578125 0 L 15.390625 0 L 12.859375 -9.6875 L 7.984375 -9.6875 L 6.5625 0 Z M 8.578125 -13.609375 L 13.078125 -13.609375 C 13.929688 -13.609375 14.691406 -13.773438 15.359375 -14.109375 C 16.035156 -14.441406 16.585938 -14.898438 17.015625 -15.484375 C 17.453125 -16.066406 17.726562 -16.75 17.84375 -17.53125 C 18.019531 -18.6875 17.785156 -19.597656 17.140625 -20.265625 C 16.503906 -20.941406 15.632812 -21.28125 14.53125 -21.28125 L 9.71875 -21.28125 Z M 8.578125 -13.609375 "/></g></g></g></svg>